# MagicaVoxel @ Ephtracy

# group
o 

# material
mtllib Slime3sad.mtl
usemtl palette

# normals
vn -1 0 0
vn 1 0 0
vn 0 0 1
vn 0 0 -1
vn 0 -1 0
vn 0 1 0

# texcoords
vt 0.00195312 0.5
vt 0.0683594 0.5
vt 0.478516 0.5
vt 0.994141 0.5

# verts
v -0.8 0 0.6
v -0.8 0 -0.6
v -0.8 0.1 0.6
v -0.8 0.1 -0.6
v -0.7 0 0.7
v -0.7 0 0.6
v -0.7 0 -0.6
v -0.7 0 -0.7
v -0.7 0.1 0.7
v -0.7 0.1 0.6
v -0.7 0.1 -0.6
v -0.7 0.1 -0.7
v -0.7 0.2 0.6
v -0.7 0.2 -0.6
v -0.6 0 0.8
v -0.6 0 0.7
v -0.6 0 -0.7
v -0.6 0 -0.8
v -0.6 0.1 0.8
v -0.6 0.1 0.7
v -0.6 0.1 0.6
v -0.6 0.1 -0.6
v -0.6 0.1 -0.7
v -0.6 0.1 -0.8
v -0.6 0.2 0.7
v -0.6 0.2 0.6
v -0.6 0.2 -0.6
v -0.6 0.2 -0.7
v -0.6 0.3 0.6
v -0.6 0.3 -0.6
v -0.6 0.5 0.6
v -0.6 0.5 0.5
v -0.6 0.5 -0.5
v -0.6 0.5 -0.6
v -0.6 0.6 0.5
v -0.6 0.6 0.4
v -0.6 0.6 -0.4
v -0.6 0.6 -0.5
v -0.6 0.7 0.4
v -0.6 0.7 -0.4
v -0.5 0.5 0.6
v -0.5 0.5 0.5
v -0.5 0.5 -0.5
v -0.5 0.5 -0.6
v -0.5 0.6 0.6
v -0.5 0.6 0.5
v -0.5 0.6 0.4
v -0.5 0.6 -0.4
v -0.5 0.6 -0.5
v -0.5 0.6 -0.6
v -0.5 0.7 0.5
v -0.5 0.7 0.4
v -0.5 0.7 -0.4
v -0.5 0.7 -0.5
v -0.4 0.6 0.6
v -0.4 0.6 0.5
v -0.4 0.6 -0.5
v -0.4 0.6 -0.6
v -0.4 0.7 0.6
v -0.4 0.7 0.5
v -0.4 0.7 0.3
v -0.4 0.7 -0.3
v -0.4 0.7 -0.5
v -0.4 0.7 -0.6
v -0.4 0.8 0.3
v -0.4 0.8 -0.3
v -0.3 0.7 0.4
v -0.3 0.7 0.3
v -0.3 0.7 -0.3
v -0.3 0.7 -0.4
v -0.3 0.8 0.4
v -0.3 0.8 0.3
v -0.3 0.8 -0.3
v -0.3 0.8 -0.4
v 0.4 0.6 0.6
v 0.4 0.6 0.5
v 0.4 0.6 -0.5
v 0.4 0.6 -0.6
v 0.4 0.7 0.6
v 0.4 0.7 0.5
v 0.4 0.7 0.4
v 0.4 0.7 -0.4
v 0.4 0.7 -0.5
v 0.4 0.7 -0.6
v 0.4 0.8 0.4
v 0.4 0.8 -0.4
v 0.5 0.5 0.6
v 0.5 0.5 0.5
v 0.5 0.5 -0.5
v 0.5 0.5 -0.6
v 0.5 0.6 0.6
v 0.5 0.6 0.5
v 0.5 0.6 0.4
v 0.5 0.6 -0.4
v 0.5 0.6 -0.5
v 0.5 0.6 -0.6
v 0.5 0.7 0.5
v 0.5 0.7 0.4
v 0.5 0.7 -0.4
v 0.5 0.7 -0.5
v 0.6 0 0.8
v 0.6 0 0.7
v 0.6 0 -0.7
v 0.6 0 -0.8
v 0.6 0.1 0.8
v 0.6 0.1 0.7
v 0.6 0.1 0.6
v 0.6 0.1 -0.6
v 0.6 0.1 -0.7
v 0.6 0.1 -0.8
v 0.6 0.2 0.7
v 0.6 0.2 0.6
v 0.6 0.2 -0.6
v 0.6 0.2 -0.7
v 0.6 0.3 0.6
v 0.6 0.3 -0.6
v 0.6 0.4 0.3
v 0.6 0.4 0.2
v 0.6 0.4 -0.2
v 0.6 0.4 -0.3
v 0.6 0.5 0.6
v 0.6 0.5 0.5
v 0.6 0.5 -0.5
v 0.6 0.5 -0.6
v 0.6 0.6 0.5
v 0.6 0.6 0.4
v 0.6 0.6 0.3
v 0.6 0.6 0.2
v 0.6 0.6 -0.2
v 0.6 0.6 -0.3
v 0.6 0.6 -0.4
v 0.6 0.6 -0.5
v 0.6 0.7 0.4
v 0.6 0.7 -0.4
v 0.7 0 0.7
v 0.7 0 0.6
v 0.7 0 -0.6
v 0.7 0 -0.7
v 0.7 0.1 0.7
v 0.7 0.1 0.6
v 0.7 0.1 -0.6
v 0.7 0.1 -0.7
v 0.7 0.2 0.6
v 0.7 0.2 -0.6
v 0.8 0 0.6
v 0.8 0 -0.6
v 0.8 0.1 0.6
v 0.8 0.1 -0.6
v -0.6 0 0.8
v -0.6 0.1 0.8
v 0.6 0 0.8
v 0.6 0.1 0.8
v -0.7 0 0.7
v -0.7 0.1 0.7
v -0.6 0 0.7
v -0.6 0.1 0.7
v -0.6 0.2 0.7
v 0.6 0 0.7
v 0.6 0.1 0.7
v 0.6 0.2 0.7
v 0.7 0 0.7
v 0.7 0.1 0.7
v -0.8 0 0.6
v -0.8 0.1 0.6
v -0.7 0 0.6
v -0.7 0.1 0.6
v -0.7 0.2 0.6
v -0.6 0.1 0.6
v -0.6 0.2 0.6
v -0.6 0.3 0.6
v -0.6 0.5 0.6
v -0.5 0.5 0.6
v -0.5 0.6 0.6
v -0.4 0.6 0.6
v -0.4 0.7 0.6
v 0.4 0.6 0.6
v 0.4 0.7 0.6
v 0.5 0.5 0.6
v 0.5 0.6 0.6
v 0.6 0.1 0.6
v 0.6 0.2 0.6
v 0.6 0.3 0.6
v 0.6 0.5 0.6
v 0.7 0 0.6
v 0.7 0.1 0.6
v 0.7 0.2 0.6
v 0.8 0 0.6
v 0.8 0.1 0.6
v -0.6 0.5 0.5
v -0.6 0.6 0.5
v -0.5 0.5 0.5
v -0.5 0.6 0.5
v -0.5 0.7 0.5
v -0.4 0.6 0.5
v -0.4 0.7 0.5
v 0.4 0.6 0.5
v 0.4 0.7 0.5
v 0.5 0.5 0.5
v 0.5 0.6 0.5
v 0.5 0.7 0.5
v 0.6 0.5 0.5
v 0.6 0.6 0.5
v -0.6 0.6 0.4
v -0.6 0.7 0.4
v -0.5 0.6 0.4
v -0.5 0.7 0.4
v -0.3 0.7 0.4
v -0.3 0.8 0.4
v 0.4 0.7 0.4
v 0.4 0.8 0.4
v 0.5 0.6 0.4
v 0.5 0.7 0.4
v 0.6 0.6 0.4
v 0.6 0.7 0.4
v -0.4 0.7 0.3
v -0.4 0.8 0.3
v -0.3 0.7 0.3
v -0.3 0.8 0.3
v -0.4 0.7 -0.3
v -0.4 0.8 -0.3
v -0.3 0.7 -0.3
v -0.3 0.8 -0.3
v -0.6 0.6 -0.4
v -0.6 0.7 -0.4
v -0.5 0.6 -0.4
v -0.5 0.7 -0.4
v -0.3 0.7 -0.4
v -0.3 0.8 -0.4
v 0.4 0.7 -0.4
v 0.4 0.8 -0.4
v 0.5 0.6 -0.4
v 0.5 0.7 -0.4
v 0.6 0.6 -0.4
v 0.6 0.7 -0.4
v -0.6 0.5 -0.5
v -0.6 0.6 -0.5
v -0.5 0.5 -0.5
v -0.5 0.6 -0.5
v -0.5 0.7 -0.5
v -0.4 0.6 -0.5
v -0.4 0.7 -0.5
v 0.4 0.6 -0.5
v 0.4 0.7 -0.5
v 0.5 0.5 -0.5
v 0.5 0.6 -0.5
v 0.5 0.7 -0.5
v 0.6 0.5 -0.5
v 0.6 0.6 -0.5
v -0.8 0 -0.6
v -0.8 0.1 -0.6
v -0.7 0 -0.6
v -0.7 0.1 -0.6
v -0.7 0.2 -0.6
v -0.6 0.1 -0.6
v -0.6 0.2 -0.6
v -0.6 0.3 -0.6
v -0.6 0.5 -0.6
v -0.5 0.5 -0.6
v -0.5 0.6 -0.6
v -0.4 0.6 -0.6
v -0.4 0.7 -0.6
v 0.4 0.6 -0.6
v 0.4 0.7 -0.6
v 0.5 0.5 -0.6
v 0.5 0.6 -0.6
v 0.6 0.1 -0.6
v 0.6 0.2 -0.6
v 0.6 0.3 -0.6
v 0.6 0.5 -0.6
v 0.7 0 -0.6
v 0.7 0.1 -0.6
v 0.7 0.2 -0.6
v 0.8 0 -0.6
v 0.8 0.1 -0.6
v -0.7 0 -0.7
v -0.7 0.1 -0.7
v -0.6 0 -0.7
v -0.6 0.1 -0.7
v -0.6 0.2 -0.7
v 0.6 0 -0.7
v 0.6 0.1 -0.7
v 0.6 0.2 -0.7
v 0.7 0 -0.7
v 0.7 0.1 -0.7
v -0.6 0 -0.8
v -0.6 0.1 -0.8
v 0.6 0 -0.8
v 0.6 0.1 -0.8
v -0.6 0 0.8
v 0.6 0 0.8
v -0.7 0 0.7
v -0.6 0 0.7
v 0.6 0 0.7
v 0.7 0 0.7
v -0.8 0 0.6
v -0.7 0 0.6
v 0.7 0 0.6
v 0.8 0 0.6
v -0.5 0 0.5
v 0.5 0 0.5
v -0.5 0 -0.5
v 0.5 0 -0.5
v -0.8 0 -0.6
v -0.7 0 -0.6
v 0.7 0 -0.6
v 0.8 0 -0.6
v -0.7 0 -0.7
v -0.6 0 -0.7
v 0.6 0 -0.7
v 0.7 0 -0.7
v -0.6 0 -0.8
v 0.6 0 -0.8
v -0.6 0.1 0.8
v 0.6 0.1 0.8
v -0.7 0.1 0.7
v -0.6 0.1 0.7
v 0.6 0.1 0.7
v 0.7 0.1 0.7
v -0.8 0.1 0.6
v -0.7 0.1 0.6
v -0.6 0.1 0.6
v 0.6 0.1 0.6
v 0.7 0.1 0.6
v 0.8 0.1 0.6
v -0.8 0.1 -0.6
v -0.7 0.1 -0.6
v -0.6 0.1 -0.6
v 0.6 0.1 -0.6
v 0.7 0.1 -0.6
v 0.8 0.1 -0.6
v -0.7 0.1 -0.7
v -0.6 0.1 -0.7
v 0.6 0.1 -0.7
v 0.7 0.1 -0.7
v -0.6 0.1 -0.8
v 0.6 0.1 -0.8
v -0.6 0.2 0.7
v 0.6 0.2 0.7
v -0.7 0.2 0.6
v -0.6 0.2 0.6
v 0.6 0.2 0.6
v 0.7 0.2 0.6
v -0.7 0.2 -0.6
v -0.6 0.2 -0.6
v 0.6 0.2 -0.6
v 0.7 0.2 -0.6
v -0.6 0.2 -0.7
v 0.6 0.2 -0.7
v -0.6 0.5 0.6
v -0.5 0.5 0.6
v 0.5 0.5 0.6
v 0.6 0.5 0.6
v -0.6 0.5 0.5
v -0.5 0.5 0.5
v 0.5 0.5 0.5
v 0.6 0.5 0.5
v -0.6 0.5 -0.5
v -0.5 0.5 -0.5
v 0.5 0.5 -0.5
v 0.6 0.5 -0.5
v -0.6 0.5 -0.6
v -0.5 0.5 -0.6
v 0.5 0.5 -0.6
v 0.6 0.5 -0.6
v -0.5 0.6 0.6
v -0.4 0.6 0.6
v 0.4 0.6 0.6
v 0.5 0.6 0.6
v -0.6 0.6 0.5
v -0.5 0.6 0.5
v -0.4 0.6 0.5
v 0.4 0.6 0.5
v 0.5 0.6 0.5
v 0.6 0.6 0.5
v -0.6 0.6 0.4
v -0.5 0.6 0.4
v 0.5 0.6 0.4
v 0.6 0.6 0.4
v -0.6 0.6 -0.4
v -0.5 0.6 -0.4
v 0.5 0.6 -0.4
v 0.6 0.6 -0.4
v -0.6 0.6 -0.5
v -0.5 0.6 -0.5
v -0.4 0.6 -0.5
v 0.4 0.6 -0.5
v 0.5 0.6 -0.5
v 0.6 0.6 -0.5
v -0.5 0.6 -0.6
v -0.4 0.6 -0.6
v 0.4 0.6 -0.6
v 0.5 0.6 -0.6
v -0.4 0.7 0.6
v 0.4 0.7 0.6
v -0.5 0.7 0.5
v -0.4 0.7 0.5
v 0.4 0.7 0.5
v 0.5 0.7 0.5
v -0.6 0.7 0.4
v -0.5 0.7 0.4
v -0.3 0.7 0.4
v 0.4 0.7 0.4
v 0.5 0.7 0.4
v 0.6 0.7 0.4
v -0.4 0.7 0.3
v -0.3 0.7 0.3
v -0.4 0.7 -0.3
v -0.3 0.7 -0.3
v -0.6 0.7 -0.4
v -0.5 0.7 -0.4
v -0.3 0.7 -0.4
v 0.4 0.7 -0.4
v 0.5 0.7 -0.4
v 0.6 0.7 -0.4
v -0.5 0.7 -0.5
v -0.4 0.7 -0.5
v 0.4 0.7 -0.5
v 0.5 0.7 -0.5
v -0.4 0.7 -0.6
v 0.4 0.7 -0.6
v -0.3 0.8 0.4
v 0.4 0.8 0.4
v -0.4 0.8 0.3
v -0.3 0.8 0.3
v -0.4 0.8 -0.3
v -0.3 0.8 -0.3
v -0.3 0.8 -0.4
v 0.4 0.8 -0.4

# faces
f 3/1/1 2/1/1 1/1/1
f 4/1/1 2/1/1 3/1/1
f 9/1/1 6/1/1 5/1/1
f 10/1/1 6/1/1 9/1/1
f 11/1/1 8/1/1 7/1/1
f 12/1/1 8/1/1 11/1/1
f 13/1/1 11/1/1 10/1/1
f 14/1/1 11/1/1 13/1/1
f 19/1/1 16/1/1 15/1/1
f 20/1/1 16/1/1 19/1/1
f 23/1/1 18/1/1 17/1/1
f 24/1/1 18/1/1 23/1/1
f 25/1/1 21/1/1 20/1/1
f 26/1/1 21/1/1 25/1/1
f 27/1/1 23/1/1 22/1/1
f 28/1/1 23/1/1 27/1/1
f 29/1/1 27/1/1 26/1/1
f 30/1/1 27/1/1 29/1/1
f 31/3/1 30/3/1 29/3/1
f 32/3/1 30/3/1 31/3/1
f 33/3/1 30/3/1 32/3/1
f 34/3/1 30/3/1 33/3/1
f 35/3/1 33/3/1 32/3/1
f 36/3/1 33/3/1 35/3/1
f 37/3/1 33/3/1 36/3/1
f 38/3/1 33/3/1 37/3/1
f 39/3/1 37/3/1 36/3/1
f 40/3/1 37/3/1 39/3/1
f 45/3/1 42/3/1 41/3/1
f 46/3/1 42/3/1 45/3/1
f 49/3/1 44/3/1 43/3/1
f 50/3/1 44/3/1 49/3/1
f 51/3/1 47/3/1 46/3/1
f 52/3/1 47/3/1 51/3/1
f 53/3/1 49/3/1 48/3/1
f 54/3/1 49/3/1 53/3/1
f 59/3/1 56/3/1 55/3/1
f 60/3/1 56/3/1 59/3/1
f 63/3/1 58/3/1 57/3/1
f 64/3/1 58/3/1 63/3/1
f 65/3/1 62/3/1 61/3/1
f 66/3/1 62/3/1 65/3/1
f 71/3/1 68/3/1 67/3/1
f 72/3/1 68/3/1 71/3/1
f 73/3/1 70/3/1 69/3/1
f 74/3/1 70/3/1 73/3/1
f 75/3/2 76/3/2 79/3/2
f 79/3/2 76/3/2 80/3/2
f 77/3/2 78/3/2 83/3/2
f 83/3/2 78/3/2 84/3/2
f 81/3/2 82/3/2 85/3/2
f 85/3/2 82/3/2 86/3/2
f 87/3/2 88/3/2 91/3/2
f 91/3/2 88/3/2 92/3/2
f 89/3/2 90/3/2 95/3/2
f 95/3/2 90/3/2 96/3/2
f 92/3/2 93/3/2 97/3/2
f 97/3/2 93/3/2 98/3/2
f 94/3/2 95/3/2 99/3/2
f 99/3/2 95/3/2 100/3/2
f 101/1/2 102/1/2 105/1/2
f 105/1/2 102/1/2 106/1/2
f 103/1/2 104/1/2 109/1/2
f 109/1/2 104/1/2 110/1/2
f 106/1/2 107/1/2 111/1/2
f 111/1/2 107/1/2 112/1/2
f 108/1/2 109/1/2 113/1/2
f 113/1/2 109/1/2 114/1/2
f 112/1/2 113/1/2 115/1/2
f 115/1/2 113/1/2 116/1/2
f 115/3/2 116/3/2 117/3/2
f 117/3/2 116/3/2 118/3/2
f 118/3/2 116/3/2 119/3/2
f 119/3/2 116/3/2 120/3/2
f 115/3/2 117/3/2 121/3/2
f 121/3/2 117/3/2 122/3/2
f 120/3/2 116/3/2 123/3/2
f 123/3/2 116/3/2 124/3/2
f 122/3/2 117/3/2 125/3/2
f 125/3/2 117/3/2 126/3/2
f 117/4/2 118/4/2 127/4/2
f 126/3/2 117/3/2 127/3/2
f 118/3/2 119/3/2 128/3/2
f 127/4/2 118/4/2 128/4/2
f 119/4/2 120/4/2 129/4/2
f 128/3/2 119/3/2 129/3/2
f 120/3/2 123/3/2 130/3/2
f 129/4/2 120/4/2 130/4/2
f 130/3/2 123/3/2 131/3/2
f 131/3/2 123/3/2 132/3/2
f 126/3/2 127/3/2 133/3/2
f 130/3/2 131/3/2 133/3/2
f 129/3/2 130/3/2 133/3/2
f 127/3/2 128/3/2 133/3/2
f 128/3/2 129/3/2 133/3/2
f 133/3/2 131/3/2 134/3/2
f 135/1/2 136/1/2 139/1/2
f 139/1/2 136/1/2 140/1/2
f 137/1/2 138/1/2 141/1/2
f 141/1/2 138/1/2 142/1/2
f 140/1/2 141/1/2 143/1/2
f 143/1/2 141/1/2 144/1/2
f 145/1/2 146/1/2 147/1/2
f 147/1/2 146/1/2 148/1/2
f 151/1/3 150/1/3 149/1/3
f 152/1/3 150/1/3 151/1/3
f 155/1/3 154/1/3 153/1/3
f 156/1/3 154/1/3 155/1/3
f 159/1/3 157/1/3 156/1/3
f 160/1/3 157/1/3 159/1/3
f 161/1/3 159/1/3 158/1/3
f 162/1/3 159/1/3 161/1/3
f 165/1/3 164/1/3 163/1/3
f 166/1/3 164/1/3 165/1/3
f 168/1/3 167/1/3 166/1/3
f 169/1/3 167/1/3 168/1/3
f 172/3/3 171/3/3 170/3/3
f 174/3/3 173/3/3 172/3/3
f 176/3/3 174/3/3 172/3/3
f 176/3/3 175/3/3 174/3/3
f 177/3/3 175/3/3 176/3/3
f 178/3/3 172/3/3 170/3/3
f 178/3/3 176/3/3 172/3/3
f 179/3/3 176/3/3 178/3/3
f 181/1/3 170/1/3 169/1/3
f 182/3/3 178/3/3 170/3/3
f 182/1/3 170/1/3 181/1/3
f 183/3/3 178/3/3 182/3/3
f 185/1/3 181/1/3 180/1/3
f 186/1/3 181/1/3 185/1/3
f 187/1/3 185/1/3 184/1/3
f 188/1/3 185/1/3 187/1/3
f 191/3/3 190/3/3 189/3/3
f 192/3/3 190/3/3 191/3/3
f 194/3/3 193/3/3 192/3/3
f 195/3/3 193/3/3 194/3/3
f 199/3/3 197/3/3 196/3/3
f 200/3/3 197/3/3 199/3/3
f 201/3/3 199/3/3 198/3/3
f 202/3/3 199/3/3 201/3/3
f 205/3/3 204/3/3 203/3/3
f 206/3/3 204/3/3 205/3/3
f 209/3/3 208/3/3 207/3/3
f 210/3/3 208/3/3 209/3/3
f 213/3/3 212/3/3 211/3/3
f 214/3/3 212/3/3 213/3/3
f 217/3/3 216/3/3 215/3/3
f 218/3/3 216/3/3 217/3/3
f 219/3/4 220/3/4 221/3/4
f 221/3/4 220/3/4 222/3/4
f 223/3/4 224/3/4 225/3/4
f 225/3/4 224/3/4 226/3/4
f 227/3/4 228/3/4 229/3/4
f 229/3/4 228/3/4 230/3/4
f 231/3/4 232/3/4 233/3/4
f 233/3/4 232/3/4 234/3/4
f 235/3/4 236/3/4 237/3/4
f 237/3/4 236/3/4 238/3/4
f 238/3/4 239/3/4 240/3/4
f 240/3/4 239/3/4 241/3/4
f 242/3/4 243/3/4 245/3/4
f 245/3/4 243/3/4 246/3/4
f 244/3/4 245/3/4 247/3/4
f 247/3/4 245/3/4 248/3/4
f 249/1/4 250/1/4 251/1/4
f 251/1/4 250/1/4 252/1/4
f 252/1/4 253/1/4 254/1/4
f 254/1/4 253/1/4 255/1/4
f 256/3/4 257/3/4 258/3/4
f 258/3/4 259/3/4 260/3/4
f 258/3/4 260/3/4 262/3/4
f 260/3/4 261/3/4 262/3/4
f 262/3/4 261/3/4 263/3/4
f 256/3/4 258/3/4 264/3/4
f 258/3/4 262/3/4 264/3/4
f 264/3/4 262/3/4 265/3/4
f 255/1/4 256/1/4 267/1/4
f 256/3/4 264/3/4 268/3/4
f 267/1/4 256/1/4 268/1/4
f 268/3/4 264/3/4 269/3/4
f 266/1/4 267/1/4 271/1/4
f 271/1/4 267/1/4 272/1/4
f 270/1/4 271/1/4 273/1/4
f 273/1/4 271/1/4 274/1/4
f 275/1/4 276/1/4 277/1/4
f 277/1/4 276/1/4 278/1/4
f 278/1/4 279/1/4 281/1/4
f 281/1/4 279/1/4 282/1/4
f 280/1/4 281/1/4 283/1/4
f 283/1/4 281/1/4 284/1/4
f 285/1/4 286/1/4 287/1/4
f 287/1/4 286/1/4 288/1/4
f 292/1/5 290/1/5 289/1/5
f 293/1/5 290/1/5 292/1/5
f 296/1/5 292/1/5 291/1/5
f 296/1/5 294/1/5 293/1/5
f 296/1/5 293/1/5 292/1/5
f 297/1/5 294/1/5 296/1/5
f 299/1/5 296/1/5 295/1/5
f 299/1/5 298/1/5 297/1/5
f 299/1/5 297/1/5 296/1/5
f 300/1/5 298/1/5 299/1/5
f 301/1/5 299/1/5 295/1/5
f 301/2/5 300/2/5 299/2/5
f 302/1/5 298/1/5 300/1/5
f 302/2/5 300/2/5 301/2/5
f 303/1/5 301/1/5 295/1/5
f 303/1/5 302/1/5 301/1/5
f 304/1/5 302/1/5 303/1/5
f 305/1/5 298/1/5 302/1/5
f 305/1/5 302/1/5 304/1/5
f 306/1/5 298/1/5 305/1/5
f 307/1/5 305/1/5 304/1/5
f 308/1/5 305/1/5 307/1/5
f 309/1/5 305/1/5 308/1/5
f 310/1/5 305/1/5 309/1/5
f 311/1/5 309/1/5 308/1/5
f 312/1/5 309/1/5 311/1/5
f 313/1/6 314/1/6 316/1/6
f 316/1/6 314/1/6 317/1/6
f 315/1/6 316/1/6 320/1/6
f 320/1/6 316/1/6 321/1/6
f 317/1/6 318/1/6 322/1/6
f 322/1/6 318/1/6 323/1/6
f 319/1/6 320/1/6 325/1/6
f 325/1/6 320/1/6 326/1/6
f 323/1/6 324/1/6 329/1/6
f 329/1/6 324/1/6 330/1/6
f 326/1/6 327/1/6 331/1/6
f 331/1/6 327/1/6 332/1/6
f 328/1/6 329/1/6 333/1/6
f 333/1/6 329/1/6 334/1/6
f 332/1/6 333/1/6 335/1/6
f 335/1/6 333/1/6 336/1/6
f 337/1/6 338/1/6 340/1/6
f 340/1/6 338/1/6 341/1/6
f 339/1/6 340/1/6 343/1/6
f 343/1/6 340/1/6 344/1/6
f 341/1/6 342/1/6 345/1/6
f 345/1/6 342/1/6 346/1/6
f 344/1/6 345/1/6 347/1/6
f 347/1/6 345/1/6 348/1/6
f 349/3/6 350/3/6 353/3/6
f 353/3/6 350/3/6 354/3/6
f 351/3/6 352/3/6 355/3/6
f 355/3/6 352/3/6 356/3/6
f 357/3/6 358/3/6 361/3/6
f 361/3/6 358/3/6 362/3/6
f 359/3/6 360/3/6 363/3/6
f 363/3/6 360/3/6 364/3/6
f 365/3/6 366/3/6 370/3/6
f 370/3/6 366/3/6 371/3/6
f 367/3/6 368/3/6 372/3/6
f 372/3/6 368/3/6 373/3/6
f 369/3/6 370/3/6 375/3/6
f 375/3/6 370/3/6 376/3/6
f 373/3/6 374/3/6 377/3/6
f 377/3/6 374/3/6 378/3/6
f 379/3/6 380/3/6 383/3/6
f 383/3/6 380/3/6 384/3/6
f 381/3/6 382/3/6 387/3/6
f 387/3/6 382/3/6 388/3/6
f 384/3/6 385/3/6 389/3/6
f 389/3/6 385/3/6 390/3/6
f 386/3/6 387/3/6 391/3/6
f 391/3/6 387/3/6 392/3/6
f 393/3/6 394/3/6 396/3/6
f 396/3/6 394/3/6 397/3/6
f 395/3/6 396/3/6 400/3/6
f 397/3/6 398/3/6 400/3/6
f 396/3/6 397/3/6 400/3/6
f 400/3/6 398/3/6 401/3/6
f 401/3/6 398/3/6 402/3/6
f 402/3/6 398/3/6 403/3/6
f 399/3/6 400/3/6 405/3/6
f 400/3/6 401/3/6 405/3/6
f 405/3/6 401/3/6 406/3/6
f 399/3/6 405/3/6 407/3/6
f 399/3/6 407/3/6 409/3/6
f 407/3/6 408/3/6 409/3/6
f 409/3/6 408/3/6 410/3/6
f 410/3/6 408/3/6 411/3/6
f 403/3/6 404/3/6 412/3/6
f 402/3/6 403/3/6 412/3/6
f 412/3/6 404/3/6 413/3/6
f 413/3/6 404/3/6 414/3/6
f 410/3/6 411/3/6 415/3/6
f 412/3/6 413/3/6 415/3/6
f 411/3/6 412/3/6 415/3/6
f 415/3/6 413/3/6 416/3/6
f 416/3/6 413/3/6 417/3/6
f 417/3/6 413/3/6 418/3/6
f 416/3/6 417/3/6 419/3/6
f 419/3/6 417/3/6 420/3/6
f 421/3/6 422/3/6 424/3/6
f 423/3/6 424/3/6 425/3/6
f 424/3/6 422/3/6 426/3/6
f 425/3/6 424/3/6 426/3/6
f 426/3/6 422/3/6 427/3/6
f 427/3/6 422/3/6 428/3/6
