# MagicaVoxel @ Ephtracy

# group
o 

# material
mtllib Book2.mtl
usemtl palette

# normals
vn -1 0 0
vn 1 0 0
vn 0 0 1
vn 0 0 -1
vn 0 -1 0
vn 0 1 0

# texcoords
vt 0.759766 0.5
vt 0.966797 0.5
vt 0.994141 0.5

# verts
v -2 0.6 3.1
v -2 0.6 -2.8
v -2 1.1 3.1
v -2 1.1 -2.8
v -2 3 3.1
v -2 3 -2.8
v -2 3.4 3.1
v -2 3.4 -2.8
v -1.9 1.1 3
v -1.9 1.1 -2.7
v -1.9 1.2 3
v -1.9 1.2 -2.7
v -1.9 1.3 3
v -1.9 1.3 -2.7
v -1.9 1.4 3
v -1.9 1.4 -2.7
v -1.9 1.5 3
v -1.9 1.5 -2.7
v -1.9 1.6 3
v -1.9 1.6 -2.7
v -1.9 1.7 3
v -1.9 1.7 -2.7
v -1.9 1.8 3
v -1.9 1.8 -2.7
v -1.9 1.9 3
v -1.9 1.9 -2.7
v -1.9 2 3
v -1.9 2 -2.7
v -1.9 2.1 3
v -1.9 2.1 -2.7
v -1.9 2.2 3
v -1.9 2.2 -2.7
v -1.9 2.3 3
v -1.9 2.3 -2.7
v -1.9 2.4 3
v -1.9 2.4 -2.7
v -1.9 2.5 3
v -1.9 2.5 -2.7
v -1.9 2.6 3
v -1.9 2.6 -2.7
v -1.9 2.7 3
v -1.9 2.7 -2.7
v -1.9 2.8 3
v -1.9 2.8 -2.7
v -1.9 2.9 3
v -1.9 2.9 -2.7
v -1.9 3 3
v -1.9 3 -2.7
v 1.6 1.1 3.1
v 1.6 1.1 3
v 1.6 1.1 -2.7
v 1.6 1.1 -2.8
v 1.6 3 3.1
v 1.6 3 3
v 1.6 3 -2.7
v 1.6 3 -2.8
v 2 0.6 3.1
v 2 0.6 -2.8
v 2 3.4 3.1
v 2 3.4 -2.8
v -2 0.6 3.1
v -2 1.1 3.1
v -2 3 3.1
v -2 3.4 3.1
v 1.6 1.1 3.1
v 1.6 3 3.1
v 2 0.6 3.1
v 2 3.4 3.1
v -1.9 1.1 3
v -1.9 1.2 3
v -1.9 1.3 3
v -1.9 1.4 3
v -1.9 1.5 3
v -1.9 1.6 3
v -1.9 1.7 3
v -1.9 1.8 3
v -1.9 1.9 3
v -1.9 2 3
v -1.9 2.1 3
v -1.9 2.2 3
v -1.9 2.3 3
v -1.9 2.4 3
v -1.9 2.5 3
v -1.9 2.6 3
v -1.9 2.7 3
v -1.9 2.8 3
v -1.9 2.9 3
v -1.9 3 3
v 1.5 1.2 3
v 1.5 1.3 3
v 1.5 1.4 3
v 1.5 1.5 3
v 1.5 1.6 3
v 1.5 1.7 3
v 1.5 1.8 3
v 1.5 1.9 3
v 1.5 2 3
v 1.5 2.1 3
v 1.5 2.2 3
v 1.5 2.3 3
v 1.5 2.4 3
v 1.5 2.5 3
v 1.5 2.6 3
v 1.5 2.7 3
v 1.5 2.8 3
v 1.5 2.9 3
v 1.6 1.1 3
v 1.6 3 3
v -1.9 1.1 -2.7
v -1.9 1.2 -2.7
v -1.9 1.3 -2.7
v -1.9 1.4 -2.7
v -1.9 1.5 -2.7
v -1.9 1.6 -2.7
v -1.9 1.7 -2.7
v -1.9 1.8 -2.7
v -1.9 1.9 -2.7
v -1.9 2 -2.7
v -1.9 2.1 -2.7
v -1.9 2.2 -2.7
v -1.9 2.3 -2.7
v -1.9 2.4 -2.7
v -1.9 2.5 -2.7
v -1.9 2.6 -2.7
v -1.9 2.7 -2.7
v -1.9 2.8 -2.7
v -1.9 2.9 -2.7
v -1.9 3 -2.7
v 1.5 1.2 -2.7
v 1.5 1.3 -2.7
v 1.5 1.4 -2.7
v 1.5 1.5 -2.7
v 1.5 1.6 -2.7
v 1.5 1.7 -2.7
v 1.5 1.8 -2.7
v 1.5 1.9 -2.7
v 1.5 2 -2.7
v 1.5 2.1 -2.7
v 1.5 2.2 -2.7
v 1.5 2.3 -2.7
v 1.5 2.4 -2.7
v 1.5 2.5 -2.7
v 1.5 2.6 -2.7
v 1.5 2.7 -2.7
v 1.5 2.8 -2.7
v 1.5 2.9 -2.7
v 1.6 1.1 -2.7
v 1.6 3 -2.7
v -2 0.6 -2.8
v -2 1.1 -2.8
v -2 3 -2.8
v -2 3.4 -2.8
v 1.6 1.1 -2.8
v 1.6 3 -2.8
v 2 0.6 -2.8
v 2 3.4 -2.8
v -2 0.6 3.1
v 2 0.6 3.1
v -2 0.6 -2.8
v 2 0.6 -2.8
v -2 3 3.1
v 1.6 3 3.1
v -1.9 3 3
v 1.6 3 3
v -1.9 3 -2.7
v 1.6 3 -2.7
v -2 3 -2.8
v 1.6 3 -2.8
v -2 1.1 3.1
v 1.6 1.1 3.1
v -1.9 1.1 3
v 1.6 1.1 3
v -1.9 1.1 -2.7
v 1.6 1.1 -2.7
v -2 1.1 -2.8
v 1.6 1.1 -2.8
v -2 3.4 3.1
v 2 3.4 3.1
v -2 3.4 -2.8
v 2 3.4 -2.8

# faces
f 3/1/1 2/1/1 1/1/1
f 4/1/1 2/1/1 3/1/1
f 7/1/1 6/1/1 5/1/1
f 8/1/1 6/1/1 7/1/1
f 11/2/1 10/2/1 9/2/1
f 12/2/1 10/2/1 11/2/1
f 13/3/1 12/3/1 11/3/1
f 14/3/1 12/3/1 13/3/1
f 15/2/1 14/2/1 13/2/1
f 16/2/1 14/2/1 15/2/1
f 17/3/1 16/3/1 15/3/1
f 18/3/1 16/3/1 17/3/1
f 19/2/1 18/2/1 17/2/1
f 20/2/1 18/2/1 19/2/1
f 21/3/1 20/3/1 19/3/1
f 22/3/1 20/3/1 21/3/1
f 23/2/1 22/2/1 21/2/1
f 24/2/1 22/2/1 23/2/1
f 25/3/1 24/3/1 23/3/1
f 26/3/1 24/3/1 25/3/1
f 27/2/1 26/2/1 25/2/1
f 28/2/1 26/2/1 27/2/1
f 29/3/1 28/3/1 27/3/1
f 30/3/1 28/3/1 29/3/1
f 31/2/1 30/2/1 29/2/1
f 32/2/1 30/2/1 31/2/1
f 33/3/1 32/3/1 31/3/1
f 34/3/1 32/3/1 33/3/1
f 35/2/1 34/2/1 33/2/1
f 36/2/1 34/2/1 35/2/1
f 37/3/1 36/3/1 35/3/1
f 38/3/1 36/3/1 37/3/1
f 39/2/1 38/2/1 37/2/1
f 40/2/1 38/2/1 39/2/1
f 41/3/1 40/3/1 39/3/1
f 42/3/1 40/3/1 41/3/1
f 43/2/1 42/2/1 41/2/1
f 44/2/1 42/2/1 43/2/1
f 45/3/1 44/3/1 43/3/1
f 46/3/1 44/3/1 45/3/1
f 47/2/1 46/2/1 45/2/1
f 48/2/1 46/2/1 47/2/1
f 53/1/1 50/1/1 49/1/1
f 54/1/1 50/1/1 53/1/1
f 55/1/1 52/1/1 51/1/1
f 56/1/1 52/1/1 55/1/1
f 57/1/2 58/1/2 59/1/2
f 59/1/2 58/1/2 60/1/2
f 65/1/3 62/1/3 61/1/3
f 66/1/3 64/1/3 63/1/3
f 67/1/3 65/1/3 61/1/3
f 67/1/3 66/1/3 65/1/3
f 68/1/3 64/1/3 66/1/3
f 68/1/3 66/1/3 67/1/3
f 89/2/3 70/2/3 69/2/3
f 89/3/3 71/3/3 70/3/3
f 90/2/3 72/2/3 71/2/3
f 90/3/3 71/3/3 89/3/3
f 91/3/3 73/3/3 72/3/3
f 91/2/3 72/2/3 90/2/3
f 92/2/3 74/2/3 73/2/3
f 92/3/3 73/3/3 91/3/3
f 93/3/3 75/3/3 74/3/3
f 93/2/3 74/2/3 92/2/3
f 94/2/3 76/2/3 75/2/3
f 94/3/3 75/3/3 93/3/3
f 95/3/3 77/3/3 76/3/3
f 95/2/3 76/2/3 94/2/3
f 96/2/3 78/2/3 77/2/3
f 96/3/3 77/3/3 95/3/3
f 97/3/3 79/3/3 78/3/3
f 97/2/3 78/2/3 96/2/3
f 98/2/3 80/2/3 79/2/3
f 98/3/3 79/3/3 97/3/3
f 99/3/3 81/3/3 80/3/3
f 99/2/3 80/2/3 98/2/3
f 100/2/3 82/2/3 81/2/3
f 100/3/3 81/3/3 99/3/3
f 101/3/3 83/3/3 82/3/3
f 101/2/3 82/2/3 100/2/3
f 102/2/3 84/2/3 83/2/3
f 102/3/3 83/3/3 101/3/3
f 103/3/3 85/3/3 84/3/3
f 103/2/3 84/2/3 102/2/3
f 104/2/3 86/2/3 85/2/3
f 104/3/3 85/3/3 103/3/3
f 105/3/3 87/3/3 86/3/3
f 105/2/3 86/2/3 104/2/3
f 106/2/3 88/2/3 87/2/3
f 106/3/3 87/3/3 105/3/3
f 107/2/3 105/2/3 104/2/3
f 107/2/3 104/2/3 103/2/3
f 107/2/3 106/2/3 105/2/3
f 107/2/3 103/2/3 102/2/3
f 107/2/3 102/2/3 101/2/3
f 107/2/3 101/2/3 100/2/3
f 107/2/3 100/2/3 99/2/3
f 107/2/3 99/2/3 98/2/3
f 107/2/3 98/2/3 97/2/3
f 107/2/3 97/2/3 96/2/3
f 107/2/3 96/2/3 95/2/3
f 107/2/3 95/2/3 94/2/3
f 107/2/3 94/2/3 93/2/3
f 107/2/3 93/2/3 92/2/3
f 107/2/3 92/2/3 91/2/3
f 107/2/3 91/2/3 90/2/3
f 107/2/3 90/2/3 89/2/3
f 107/2/3 89/2/3 69/2/3
f 108/2/3 88/2/3 106/2/3
f 108/2/3 106/2/3 107/2/3
f 109/2/4 110/2/4 129/2/4
f 110/3/4 111/3/4 129/3/4
f 111/2/4 112/2/4 130/2/4
f 129/3/4 111/3/4 130/3/4
f 112/3/4 113/3/4 131/3/4
f 130/2/4 112/2/4 131/2/4
f 113/2/4 114/2/4 132/2/4
f 131/3/4 113/3/4 132/3/4
f 114/3/4 115/3/4 133/3/4
f 132/2/4 114/2/4 133/2/4
f 115/2/4 116/2/4 134/2/4
f 133/3/4 115/3/4 134/3/4
f 116/3/4 117/3/4 135/3/4
f 134/2/4 116/2/4 135/2/4
f 117/2/4 118/2/4 136/2/4
f 135/3/4 117/3/4 136/3/4
f 118/3/4 119/3/4 137/3/4
f 136/2/4 118/2/4 137/2/4
f 119/2/4 120/2/4 138/2/4
f 137/3/4 119/3/4 138/3/4
f 120/3/4 121/3/4 139/3/4
f 138/2/4 120/2/4 139/2/4
f 121/2/4 122/2/4 140/2/4
f 139/3/4 121/3/4 140/3/4
f 122/3/4 123/3/4 141/3/4
f 140/2/4 122/2/4 141/2/4
f 123/2/4 124/2/4 142/2/4
f 141/3/4 123/3/4 142/3/4
f 124/3/4 125/3/4 143/3/4
f 142/2/4 124/2/4 143/2/4
f 125/2/4 126/2/4 144/2/4
f 143/3/4 125/3/4 144/3/4
f 126/3/4 127/3/4 145/3/4
f 144/2/4 126/2/4 145/2/4
f 127/2/4 128/2/4 146/2/4
f 145/3/4 127/3/4 146/3/4
f 144/2/4 145/2/4 147/2/4
f 143/2/4 144/2/4 147/2/4
f 145/2/4 146/2/4 147/2/4
f 142/2/4 143/2/4 147/2/4
f 141/2/4 142/2/4 147/2/4
f 140/2/4 141/2/4 147/2/4
f 139/2/4 140/2/4 147/2/4
f 138/2/4 139/2/4 147/2/4
f 137/2/4 138/2/4 147/2/4
f 136/2/4 137/2/4 147/2/4
f 135/2/4 136/2/4 147/2/4
f 134/2/4 135/2/4 147/2/4
f 133/2/4 134/2/4 147/2/4
f 132/2/4 133/2/4 147/2/4
f 131/2/4 132/2/4 147/2/4
f 130/2/4 131/2/4 147/2/4
f 129/2/4 130/2/4 147/2/4
f 109/2/4 129/2/4 147/2/4
f 146/2/4 128/2/4 148/2/4
f 147/2/4 146/2/4 148/2/4
f 149/1/4 150/1/4 153/1/4
f 151/1/4 152/1/4 154/1/4
f 149/1/4 153/1/4 155/1/4
f 153/1/4 154/1/4 155/1/4
f 154/1/4 152/1/4 156/1/4
f 155/1/4 154/1/4 156/1/4
f 159/1/5 158/1/5 157/1/5
f 160/1/5 158/1/5 159/1/5
f 163/1/5 162/1/5 161/1/5
f 164/1/5 162/1/5 163/1/5
f 165/1/5 163/1/5 161/1/5
f 167/1/5 165/1/5 161/1/5
f 167/1/5 166/1/5 165/1/5
f 168/1/5 166/1/5 167/1/5
f 169/1/6 170/1/6 171/1/6
f 171/1/6 170/1/6 172/1/6
f 169/1/6 171/1/6 173/1/6
f 169/1/6 173/1/6 175/1/6
f 173/1/6 174/1/6 175/1/6
f 175/1/6 174/1/6 176/1/6
f 177/1/6 178/1/6 179/1/6
f 179/1/6 178/1/6 180/1/6
