# MagicaVoxel @ Ephtracy

# group
o 

# material
mtllib Book.mtl
usemtl palette

# normals
vn -1 0 0
vn 1 0 0
vn 0 0 1
vn 0 0 -1
vn 0 -1 0
vn 0 1 0

# texcoords
vt 0.955078 0.5
vt 0.966797 0.5
vt 0.994141 0.5

# verts
v -2 0.6 3.1
v -2 0.6 -2.8
v -2 0.7 3.1
v -2 0.7 -2.8
v -2 1.2 3.1
v -2 1.2 -2.8
v -2 1.3 3.1
v -2 1.3 -2.8
v -1.9 0.7 3
v -1.9 0.7 -2.7
v -1.9 0.8 3
v -1.9 0.8 -2.7
v -1.9 0.9 3
v -1.9 0.9 -2.7
v -1.9 1 3
v -1.9 1 -2.7
v -1.9 1.1 3
v -1.9 1.1 -2.7
v -1.9 1.2 3
v -1.9 1.2 -2.7
v 1.6 0.7 3.1
v 1.6 0.7 3
v 1.6 0.7 -2.7
v 1.6 0.7 -2.8
v 1.6 1.2 3.1
v 1.6 1.2 3
v 1.6 1.2 -2.7
v 1.6 1.2 -2.8
v 1.8 0.6 3.1
v 1.8 0.6 -2.8
v 1.8 1.3 3.1
v 1.8 1.3 -2.8
v -2 0.6 3.1
v -2 0.7 3.1
v -2 1.2 3.1
v -2 1.3 3.1
v 1.6 0.7 3.1
v 1.6 1.2 3.1
v 1.8 0.6 3.1
v 1.8 1.3 3.1
v -1.9 0.7 3
v -1.9 0.8 3
v -1.9 0.9 3
v -1.9 1 3
v -1.9 1.1 3
v -1.9 1.2 3
v 1.5 0.8 3
v 1.5 0.9 3
v 1.5 1 3
v 1.5 1.1 3
v 1.6 0.7 3
v 1.6 1.2 3
v -1.9 0.7 -2.7
v -1.9 0.8 -2.7
v -1.9 0.9 -2.7
v -1.9 1 -2.7
v -1.9 1.1 -2.7
v -1.9 1.2 -2.7
v 1.5 0.8 -2.7
v 1.5 0.9 -2.7
v 1.5 1 -2.7
v 1.5 1.1 -2.7
v 1.6 0.7 -2.7
v 1.6 1.2 -2.7
v -2 0.6 -2.8
v -2 0.7 -2.8
v -2 1.2 -2.8
v -2 1.3 -2.8
v 1.6 0.7 -2.8
v 1.6 1.2 -2.8
v 1.8 0.6 -2.8
v 1.8 1.3 -2.8
v -2 0.6 3.1
v 1.8 0.6 3.1
v -2 0.6 -2.8
v 1.8 0.6 -2.8
v -2 1.2 3.1
v 1.6 1.2 3.1
v -1.9 1.2 3
v 1.6 1.2 3
v -1.9 1.2 -2.7
v 1.6 1.2 -2.7
v -2 1.2 -2.8
v 1.6 1.2 -2.8
v -2 0.7 3.1
v 1.6 0.7 3.1
v -1.9 0.7 3
v 1.6 0.7 3
v -1.9 0.7 -2.7
v 1.6 0.7 -2.7
v -2 0.7 -2.8
v 1.6 0.7 -2.8
v -2 1.3 3.1
v 1.8 1.3 3.1
v 0.7 1.3 1.9
v 0.9 1.3 1.9
v 0.8 1.3 1.8
v 0.9 1.3 1.8
v -0.5 1.3 1.7
v -0.4 1.3 1.7
v 0.4 1.3 1.7
v 0.5 1.3 1.7
v 1 1.3 1.7
v 1.5 1.3 1.7
v -1.4 1.3 1.6
v -1.3 1.3 1.6
v -1.2 1.3 1.6
v -0.8 1.3 1.6
v 0.3 1.3 1.6
v 0.4 1.3 1.6
v 1.1 1.3 1.6
v 1.4 1.3 1.6
v -1.5 1.3 1.5
v -1.4 1.3 1.5
v -1.3 1.3 1.5
v -1.2 1.3 1.5
v -1.1 1.3 1.5
v -0.9 1.3 1.5
v -0.8 1.3 1.5
v -0.7 1.3 1.5
v -0.4 1.3 1.5
v 0.1 1.3 1.5
v 0.4 1.3 1.5
v 0.5 1.3 1.5
v -1.8 1.3 1.4
v -1.6 1.3 1.4
v -1.4 1.3 1.4
v -1.3 1.3 1.4
v -1.2 1.3 1.4
v -1.1 1.3 1.4
v -0.4 1.3 1.4
v 0.1 1.3 1.4
v -1.8 1.3 1.3
v -1.7 1.3 1.3
v -1.6 1.3 1.3
v -1.5 1.3 1.3
v -0.9 1.3 1.3
v -0.8 1.3 1.3
v -0.4 1.3 1.3
v -0.0999999 1.3 1.3
v 1.3 1.3 1.3
v 1.4 1.3 1.3
v -1.7 1.3 1.2
v -1.5 1.3 1.2
v -1.2 1.3 1.2
v -0.8 1.3 1.2
v -0.4 1.3 1.2
v -0.0999999 1.3 1.2
v 0.6 1.3 1.2
v 0.7 1.3 1.2
v 1.1 1.3 1.2
v 1.3 1.3 1.2
v 1.4 1.3 1.2
v 1.5 1.3 1.2
v -1.6 1.3 1.1
v -1.5 1.3 1.1
v -1.3 1.3 1.1
v -1.1 1.3 1.1
v -1 1.3 1.1
v -0.7 1.3 1.1
v -0.2 1.3 1.1
v 0.3 1.3 1.1
v 0.7 1.3 1.1
v 0.8 1.3 1.1
v 1 1.3 1.1
v 1.4 1.3 1.1
v -1.5 1.3 1
v -1.4 1.3 1
v -1.3 1.3 1
v -1.1 1.3 1
v -0.2 1.3 1
v 0.4 1.3 1
v -1.3 1.3 0.9
v -1.2 1.3 0.9
v -1 1.3 0.9
v -0.9 1.3 0.9
v 0.6 1.3 0.9
v 0.7 1.3 0.9
v -1.6 1.3 0.8
v -1.5 1.3 0.8
v -1.2 1.3 0.8
v -0.9 1.3 0.8
v -0.5 1.3 0.8
v -0.4 1.3 0.8
v 0.9 1.3 0.8
v 1 1.3 0.8
v 0.3 1.3 0.5
v 0.4 1.3 0.5
v 0.7 1.3 0.5
v 0.9 1.3 0.5
v -1.1 1.3 0.4
v -1 1.3 0.4
v -0.8 1.3 0.4
v -0.7 1.3 0.4
v 0.4 1.3 0.4
v 0.7 1.3 0.4
v 0.8 1.3 0.4
v 1 1.3 0.4
v 0.3 1.3 0.3
v 0.8 1.3 0.3
v 1.2 1.3 0.3
v 1.3 1.3 0.3
v -0.5 1.3 0.2
v 1.2 1.3 0.2
v -0.5 1.3 0.0999999
v 2.38419e-07 1.3 0.0999999
v 0.1 1.3 0.0999999
v 1.3 1.3 0.0999999
v 0.5 1.3 0
v 1 1.3 0
v -1 1.3 -0.0999999
v -0.8 1.3 -0.0999999
v 0.4 1.3 -0.0999999
v 0.5 1.3 -0.0999999
v 0.6 1.3 -0.0999999
v 1 1.3 -0.0999999
v -1 1.3 -0.2
v -0.8 1.3 -0.2
v 0.5 1.3 -0.2
v 0.6 1.3 -0.2
v -0.0999999 1.3 -0.3
v 2.38419e-07 1.3 -0.3
v -0.7 1.3 -0.4
v -0.0999999 1.3 -0.4
v 2.38419e-07 1.3 -0.4
v 0.1 1.3 -0.4
v -0.7 1.3 -0.5
v 2.38419e-07 1.3 -0.5
v 0.4 1.3 -0.8
v 0.5 1.3 -0.8
v -0.8 1.3 -0.9
v -0.7 1.3 -0.9
v -1.2 1.3 -1
v -1.1 1.3 -1
v -1.1 1.3 -1.1
v -1 1.3 -1.1
v -1.2 1.3 -1.2
v -1.1 1.3 -1.2
v -2 1.3 -2.8
v 1.8 1.3 -2.8

# faces
f 3/1/1 2/1/1 1/1/1
f 4/1/1 2/1/1 3/1/1
f 7/1/1 6/1/1 5/1/1
f 8/1/1 6/1/1 7/1/1
f 11/2/1 10/2/1 9/2/1
f 12/2/1 10/2/1 11/2/1
f 13/3/1 12/3/1 11/3/1
f 14/3/1 12/3/1 13/3/1
f 15/2/1 14/2/1 13/2/1
f 16/2/1 14/2/1 15/2/1
f 17/3/1 16/3/1 15/3/1
f 18/3/1 16/3/1 17/3/1
f 19/2/1 18/2/1 17/2/1
f 20/2/1 18/2/1 19/2/1
f 25/1/1 22/1/1 21/1/1
f 26/1/1 22/1/1 25/1/1
f 27/1/1 24/1/1 23/1/1
f 28/1/1 24/1/1 27/1/1
f 29/1/2 30/1/2 31/1/2
f 31/1/2 30/1/2 32/1/2
f 37/1/3 34/1/3 33/1/3
f 38/1/3 36/1/3 35/1/3
f 39/1/3 37/1/3 33/1/3
f 39/1/3 38/1/3 37/1/3
f 40/1/3 36/1/3 38/1/3
f 40/1/3 38/1/3 39/1/3
f 47/2/3 42/2/3 41/2/3
f 47/3/3 43/3/3 42/3/3
f 48/2/3 44/2/3 43/2/3
f 48/3/3 43/3/3 47/3/3
f 49/3/3 45/3/3 44/3/3
f 49/2/3 44/2/3 48/2/3
f 50/2/3 46/2/3 45/2/3
f 50/3/3 45/3/3 49/3/3
f 51/2/3 49/2/3 48/2/3
f 51/2/3 48/2/3 47/2/3
f 51/2/3 50/2/3 49/2/3
f 51/2/3 47/2/3 41/2/3
f 52/2/3 46/2/3 50/2/3
f 52/2/3 50/2/3 51/2/3
f 53/2/4 54/2/4 59/2/4
f 54/3/4 55/3/4 59/3/4
f 55/2/4 56/2/4 60/2/4
f 59/3/4 55/3/4 60/3/4
f 56/3/4 57/3/4 61/3/4
f 60/2/4 56/2/4 61/2/4
f 57/2/4 58/2/4 62/2/4
f 61/3/4 57/3/4 62/3/4
f 60/2/4 61/2/4 63/2/4
f 59/2/4 60/2/4 63/2/4
f 61/2/4 62/2/4 63/2/4
f 53/2/4 59/2/4 63/2/4
f 62/2/4 58/2/4 64/2/4
f 63/2/4 62/2/4 64/2/4
f 65/1/4 66/1/4 69/1/4
f 67/1/4 68/1/4 70/1/4
f 65/1/4 69/1/4 71/1/4
f 69/1/4 70/1/4 71/1/4
f 70/1/4 68/1/4 72/1/4
f 71/1/4 70/1/4 72/1/4
f 75/1/5 74/1/5 73/1/5
f 76/1/5 74/1/5 75/1/5
f 79/1/5 78/1/5 77/1/5
f 80/1/5 78/1/5 79/1/5
f 81/1/5 79/1/5 77/1/5
f 83/1/5 81/1/5 77/1/5
f 83/1/5 82/1/5 81/1/5
f 84/1/5 82/1/5 83/1/5
f 85/1/6 86/1/6 87/1/6
f 87/1/6 86/1/6 88/1/6
f 85/1/6 87/1/6 89/1/6
f 85/1/6 89/1/6 91/1/6
f 89/1/6 90/1/6 91/1/6
f 91/1/6 90/1/6 92/1/6
f 93/1/6 94/1/6 95/1/6
f 95/1/6 94/1/6 96/1/6
f 95/3/6 96/3/6 97/3/6
f 96/1/6 94/1/6 98/1/6
f 97/3/6 96/3/6 98/3/6
f 93/1/6 95/1/6 99/1/6
f 99/1/6 95/1/6 100/1/6
f 100/1/6 95/1/6 101/1/6
f 101/1/6 95/1/6 102/1/6
f 98/1/6 94/1/6 103/1/6
f 97/1/6 98/1/6 103/1/6
f 103/1/6 94/1/6 104/1/6
f 93/1/6 99/1/6 105/1/6
f 105/1/6 99/1/6 106/1/6
f 106/1/6 99/1/6 107/1/6
f 107/1/6 99/1/6 108/1/6
f 100/1/6 101/1/6 109/1/6
f 101/3/6 102/3/6 110/3/6
f 109/1/6 101/1/6 110/1/6
f 103/3/6 104/3/6 111/3/6
f 111/3/6 104/3/6 112/3/6
f 93/1/6 105/1/6 113/1/6
f 105/3/6 106/3/6 114/3/6
f 113/1/6 105/1/6 114/1/6
f 106/1/6 107/1/6 115/1/6
f 114/3/6 106/3/6 115/3/6
f 107/3/6 108/3/6 116/3/6
f 115/1/6 107/1/6 116/1/6
f 116/3/6 108/3/6 117/3/6
f 117/3/6 108/3/6 118/3/6
f 108/1/6 99/1/6 119/1/6
f 118/3/6 108/3/6 119/3/6
f 119/1/6 99/1/6 120/1/6
f 100/1/6 109/1/6 121/1/6
f 99/3/6 100/3/6 121/3/6
f 121/1/6 109/1/6 122/1/6
f 110/3/6 102/3/6 123/3/6
f 109/3/6 110/3/6 123/3/6
f 102/1/6 95/1/6 124/1/6
f 123/3/6 102/3/6 124/3/6
f 93/1/6 113/1/6 125/1/6
f 125/1/6 113/1/6 126/1/6
f 113/3/6 114/3/6 127/3/6
f 114/3/6 115/3/6 127/3/6
f 115/3/6 116/3/6 127/3/6
f 116/3/6 117/3/6 127/3/6
f 127/3/6 117/3/6 128/3/6
f 128/3/6 117/3/6 129/3/6
f 117/1/6 118/1/6 130/1/6
f 129/3/6 117/3/6 130/3/6
f 121/3/6 122/3/6 131/3/6
f 99/3/6 121/3/6 131/3/6
f 122/1/6 109/1/6 132/1/6
f 131/3/6 122/3/6 132/3/6
f 125/3/6 126/3/6 133/3/6
f 93/1/6 125/1/6 133/1/6
f 133/3/6 126/3/6 134/3/6
f 126/1/6 113/1/6 135/1/6
f 134/3/6 126/3/6 135/3/6
f 113/3/6 127/3/6 136/3/6
f 135/1/6 113/1/6 136/1/6
f 119/3/6 120/3/6 137/3/6
f 130/1/6 118/1/6 137/1/6
f 118/3/6 119/3/6 137/3/6
f 129/1/6 130/1/6 137/1/6
f 137/3/6 120/3/6 138/3/6
f 99/3/6 131/3/6 139/3/6
f 131/1/6 132/1/6 139/1/6
f 139/1/6 132/1/6 140/1/6
f 111/1/6 112/1/6 141/1/6
f 112/3/6 104/3/6 142/3/6
f 141/1/6 112/1/6 142/1/6
f 133/1/6 134/1/6 143/1/6
f 135/3/6 136/3/6 143/3/6
f 134/3/6 135/3/6 143/3/6
f 136/3/6 127/3/6 144/3/6
f 143/3/6 136/3/6 144/3/6
f 128/3/6 129/3/6 145/3/6
f 137/1/6 138/1/6 145/1/6
f 129/1/6 137/1/6 145/1/6
f 138/3/6 120/3/6 146/3/6
f 145/1/6 138/1/6 146/1/6
f 139/3/6 140/3/6 147/3/6
f 99/3/6 139/3/6 147/3/6
f 140/1/6 132/1/6 148/1/6
f 147/3/6 140/3/6 148/3/6
f 124/1/6 95/1/6 149/1/6
f 123/1/6 124/1/6 149/1/6
f 95/3/6 97/3/6 150/3/6
f 149/1/6 95/1/6 150/1/6
f 111/1/6 141/1/6 151/1/6
f 103/3/6 111/3/6 151/3/6
f 141/3/6 142/3/6 152/3/6
f 151/1/6 141/1/6 152/1/6
f 142/3/6 104/3/6 153/3/6
f 152/3/6 142/3/6 153/3/6
f 104/1/6 94/1/6 154/1/6
f 153/3/6 104/3/6 154/3/6
f 143/1/6 144/1/6 155/1/6
f 144/3/6 127/3/6 156/3/6
f 155/1/6 144/1/6 156/1/6
f 128/3/6 145/3/6 157/3/6
f 127/1/6 128/1/6 157/1/6
f 145/3/6 146/3/6 157/3/6
f 157/3/6 146/3/6 158/3/6
f 158/3/6 146/3/6 159/3/6
f 120/1/6 99/1/6 160/1/6
f 159/3/6 146/3/6 160/3/6
f 146/3/6 120/3/6 160/3/6
f 147/1/6 148/1/6 161/1/6
f 109/3/6 123/3/6 162/3/6
f 161/1/6 148/1/6 162/1/6
f 148/1/6 132/1/6 162/1/6
f 132/1/6 109/1/6 162/1/6
f 150/3/6 97/3/6 163/3/6
f 149/3/6 150/3/6 163/3/6
f 97/1/6 103/1/6 164/1/6
f 163/3/6 97/3/6 164/3/6
f 152/3/6 153/3/6 165/3/6
f 164/1/6 103/1/6 165/1/6
f 151/3/6 152/3/6 165/3/6
f 103/3/6 151/3/6 165/3/6
f 153/1/6 154/1/6 166/1/6
f 165/3/6 153/3/6 166/3/6
f 156/3/6 127/3/6 167/3/6
f 155/3/6 156/3/6 167/3/6
f 127/1/6 157/1/6 168/1/6
f 167/3/6 127/3/6 168/3/6
f 157/1/6 158/1/6 168/1/6
f 168/1/6 158/1/6 169/1/6
f 158/3/6 159/3/6 170/3/6
f 169/1/6 158/1/6 170/1/6
f 147/1/6 161/1/6 171/1/6
f 161/3/6 162/3/6 171/3/6
f 123/1/6 149/1/6 172/1/6
f 171/3/6 162/3/6 172/3/6
f 162/3/6 123/3/6 172/3/6
f 168/1/6 169/1/6 173/1/6
f 167/1/6 168/1/6 173/1/6
f 169/3/6 170/3/6 173/3/6
f 173/3/6 170/3/6 174/3/6
f 170/3/6 159/3/6 175/3/6
f 174/3/6 170/3/6 175/3/6
f 159/1/6 160/1/6 175/1/6
f 175/1/6 160/1/6 176/1/6
f 172/1/6 149/1/6 177/1/6
f 149/3/6 163/3/6 177/3/6
f 171/1/6 172/1/6 177/1/6
f 163/1/6 164/1/6 178/1/6
f 177/3/6 163/3/6 178/3/6
f 164/1/6 165/1/6 178/1/6
f 165/1/6 166/1/6 178/1/6
f 143/1/6 155/1/6 179/1/6
f 155/3/6 167/3/6 179/3/6
f 173/1/6 174/1/6 180/1/6
f 179/3/6 167/3/6 180/3/6
f 167/1/6 173/1/6 180/1/6
f 175/3/6 176/3/6 181/3/6
f 180/1/6 174/1/6 181/1/6
f 174/3/6 175/3/6 181/3/6
f 176/1/6 160/1/6 182/1/6
f 181/3/6 176/3/6 182/3/6
f 99/3/6 147/3/6 183/3/6
f 182/1/6 160/1/6 183/1/6
f 160/1/6 99/1/6 183/1/6
f 147/1/6 171/1/6 184/1/6
f 183/3/6 147/3/6 184/3/6
f 171/1/6 177/1/6 184/1/6
f 177/1/6 178/1/6 184/1/6
f 178/1/6 166/1/6 185/1/6
f 184/1/6 178/1/6 185/1/6
f 185/1/6 166/1/6 186/1/6
f 182/1/6 183/1/6 187/1/6
f 180/1/6 181/1/6 187/1/6
f 183/1/6 184/1/6 187/1/6
f 184/1/6 185/1/6 187/1/6
f 181/1/6 182/1/6 187/1/6
f 179/1/6 180/1/6 187/1/6
f 187/1/6 185/1/6 188/1/6
f 188/1/6 185/1/6 189/1/6
f 185/3/6 186/3/6 190/3/6
f 189/1/6 185/1/6 190/1/6
f 179/1/6 187/1/6 191/1/6
f 191/1/6 187/1/6 192/1/6
f 192/1/6 187/1/6 193/1/6
f 193/1/6 187/1/6 194/1/6
f 188/1/6 189/1/6 195/1/6
f 187/3/6 188/3/6 195/3/6
f 189/3/6 190/3/6 196/3/6
f 195/1/6 189/1/6 196/1/6
f 196/3/6 190/3/6 197/3/6
f 186/1/6 166/1/6 198/1/6
f 197/3/6 190/3/6 198/3/6
f 190/3/6 186/3/6 198/3/6
f 196/3/6 197/3/6 199/3/6
f 194/1/6 187/1/6 199/1/6
f 195/3/6 196/3/6 199/3/6
f 187/3/6 195/3/6 199/3/6
f 197/1/6 198/1/6 200/1/6
f 199/3/6 197/3/6 200/3/6
f 198/1/6 166/1/6 201/1/6
f 200/1/6 198/1/6 201/1/6
f 201/1/6 166/1/6 202/1/6
f 199/1/6 200/1/6 203/1/6
f 194/1/6 199/1/6 203/1/6
f 200/1/6 201/1/6 203/1/6
f 201/3/6 202/3/6 204/3/6
f 203/1/6 201/1/6 204/1/6
f 194/1/6 203/1/6 205/1/6
f 203/3/6 204/3/6 205/3/6
f 205/3/6 204/3/6 206/3/6
f 206/3/6 204/3/6 207/3/6
f 202/1/6 166/1/6 208/1/6
f 207/3/6 204/3/6 208/3/6
f 204/3/6 202/3/6 208/3/6
f 207/1/6 208/1/6 209/1/6
f 209/1/6 208/1/6 210/1/6
f 192/1/6 193/1/6 211/1/6
f 191/3/6 192/3/6 211/3/6
f 193/3/6 194/3/6 212/3/6
f 211/1/6 193/1/6 212/1/6
f 207/1/6 209/1/6 213/1/6
f 209/3/6 210/3/6 214/3/6
f 213/1/6 209/1/6 214/1/6
f 214/3/6 210/3/6 215/3/6
f 210/1/6 208/1/6 216/1/6
f 215/3/6 210/3/6 216/3/6
f 191/3/6 211/3/6 217/3/6
f 211/3/6 212/3/6 217/3/6
f 212/3/6 194/3/6 218/3/6
f 217/3/6 212/3/6 218/3/6
f 214/3/6 215/3/6 219/3/6
f 213/3/6 214/3/6 219/3/6
f 215/1/6 216/1/6 220/1/6
f 219/3/6 215/3/6 220/3/6
f 205/1/6 206/1/6 221/1/6
f 206/3/6 207/3/6 222/3/6
f 221/1/6 206/1/6 222/1/6
f 205/1/6 221/1/6 223/1/6
f 218/3/6 194/3/6 223/3/6
f 194/1/6 205/1/6 223/1/6
f 221/3/6 222/3/6 224/3/6
f 223/1/6 221/1/6 224/1/6
f 222/3/6 207/3/6 225/3/6
f 224/3/6 222/3/6 225/3/6
f 207/1/6 213/1/6 226/1/6
f 225/3/6 207/3/6 226/3/6
f 223/3/6 224/3/6 227/3/6
f 218/3/6 223/3/6 227/3/6
f 224/3/6 225/3/6 227/3/6
f 225/1/6 226/1/6 228/1/6
f 227/3/6 225/3/6 228/3/6
f 226/1/6 213/1/6 229/1/6
f 228/1/6 226/1/6 229/1/6
f 227/1/6 228/1/6 229/1/6
f 213/3/6 219/3/6 229/3/6
f 219/1/6 220/1/6 230/1/6
f 229/3/6 219/3/6 230/3/6
f 218/3/6 227/3/6 231/3/6
f 217/1/6 218/1/6 231/1/6
f 229/1/6 230/1/6 232/1/6
f 231/3/6 227/3/6 232/3/6
f 227/1/6 229/1/6 232/1/6
f 179/1/6 191/1/6 233/1/6
f 191/3/6 217/3/6 234/3/6
f 233/1/6 191/1/6 234/1/6
f 233/3/6 234/3/6 235/3/6
f 234/3/6 217/3/6 235/3/6
f 217/1/6 231/1/6 236/1/6
f 235/3/6 217/3/6 236/3/6
f 231/1/6 232/1/6 236/1/6
f 179/1/6 233/1/6 237/1/6
f 233/3/6 235/3/6 237/3/6
f 235/1/6 236/1/6 238/1/6
f 237/3/6 235/3/6 238/3/6
f 143/1/6 179/1/6 239/1/6
f 133/1/6 143/1/6 239/1/6
f 237/1/6 238/1/6 239/1/6
f 93/1/6 133/1/6 239/1/6
f 179/1/6 237/1/6 239/1/6
f 238/1/6 236/1/6 240/1/6
f 239/1/6 238/1/6 240/1/6
f 236/1/6 232/1/6 240/1/6
f 216/1/6 208/1/6 240/1/6
f 230/1/6 220/1/6 240/1/6
f 166/1/6 154/1/6 240/1/6
f 232/1/6 230/1/6 240/1/6
f 208/1/6 166/1/6 240/1/6
f 154/1/6 94/1/6 240/1/6
f 220/1/6 216/1/6 240/1/6
