# MagicaVoxel @ Ephtracy

# group
o 

# material
mtllib BoxOpen.mtl
usemtl palette

# normals
vn -1 0 0
vn 1 0 0
vn 0 0 1
vn 0 0 -1
vn 0 -1 0
vn 0 1 0

# texcoords
vt 0.322266 0.5
vt 0.333984 0.5

# verts
v -2.8 0.6 1.8
v -2.8 0.6 0.4
v -2.8 0.6 -0.6
v -2.8 0.6 -1.9
v -2.8 1.3 0.4
v -2.8 1.3 -0.6
v -2.8 3.2 0.4
v -2.8 3.2 -0.6
v -2.8 4.5 1.8
v -2.8 4.5 0.4
v -2.8 4.5 -0.6
v -2.8 4.5 -1.9
v 2.6 1.2 1.6
v 2.6 1.2 -1.7
v 2.6 4.5 1.6
v 2.6 4.5 -1.7
v -2.6 1.2 1.6
v -2.6 1.2 -1.7
v -2.6 4.5 1.6
v -2.6 4.5 -1.7
v 2.8 0.6 1.8
v 2.8 0.6 0.4
v 2.8 0.6 -0.6
v 2.8 0.6 -1.9
v 2.8 1.2 0.4
v 2.8 1.2 -0.6
v 2.8 3.4 0.4
v 2.8 3.4 -0.6
v 2.8 4.5 1.8
v 2.8 4.5 0.4
v 2.8 4.5 -0.6
v 2.8 4.5 -1.9
v -2.8 0.6 1.8
v -2.8 4.5 1.8
v 2.8 0.6 1.8
v 2.8 4.5 1.8
v -2.6 1.2 -1.7
v -2.6 4.5 -1.7
v 2.6 1.2 -1.7
v 2.6 4.5 -1.7
v -2.6 1.2 1.6
v -2.6 4.5 1.6
v 2.6 1.2 1.6
v 2.6 4.5 1.6
v -2.8 0.6 -1.9
v -2.8 4.5 -1.9
v 2.8 0.6 -1.9
v 2.8 4.5 -1.9
v -2.8 0.6 1.8
v 2.8 0.6 1.8
v -2.8 0.6 0.4
v 2.8 0.6 0.4
v -2.8 0.6 -0.6
v 2.8 0.6 -0.6
v -2.8 0.6 -1.9
v 2.8 0.6 -1.9
v -2.6 1.2 1.6
v 2.6 1.2 1.6
v -2.6 1.2 -1.7
v 2.6 1.2 -1.7
v -2.8 4.5 1.8
v 2.8 4.5 1.8
v -2.6 4.5 1.6
v 2.6 4.5 1.6
v -2.8 4.5 0.4
v -2.7 4.5 0.4
v 2.7 4.5 0.4
v 2.8 4.5 0.4
v -2.8 4.5 -0.6
v -2.7 4.5 -0.6
v 2.7 4.5 -0.6
v 2.8 4.5 -0.6
v -2.6 4.5 -1.7
v 2.6 4.5 -1.7
v -2.8 4.5 -1.9
v 2.8 4.5 -1.9

# faces
f 5/1/1 2/1/1 1/1/1
f 5/2/1 3/2/1 2/2/1
f 6/1/1 4/1/1 3/1/1
f 6/2/1 3/2/1 5/2/1
f 7/1/1 5/1/1 1/1/1
f 7/1/1 6/1/1 5/1/1
f 8/1/1 4/1/1 6/1/1
f 8/1/1 6/1/1 7/1/1
f 9/1/1 7/1/1 1/1/1
f 10/2/1 8/2/1 7/2/1
f 10/1/1 7/1/1 9/1/1
f 11/1/1 4/1/1 8/1/1
f 11/2/1 8/2/1 10/2/1
f 12/1/1 4/1/1 11/1/1
f 15/1/1 14/1/1 13/1/1
f 16/1/1 14/1/1 15/1/1
f 17/1/2 18/1/2 19/1/2
f 19/1/2 18/1/2 20/1/2
f 21/1/2 22/1/2 25/1/2
f 22/2/2 23/2/2 25/2/2
f 23/1/2 24/1/2 26/1/2
f 25/2/2 23/2/2 26/2/2
f 21/1/2 25/1/2 27/1/2
f 25/1/2 26/1/2 27/1/2
f 26/1/2 24/1/2 28/1/2
f 27/1/2 26/1/2 28/1/2
f 21/1/2 27/1/2 29/1/2
f 27/2/2 28/2/2 30/2/2
f 29/1/2 27/1/2 30/1/2
f 28/1/2 24/1/2 31/1/2
f 30/2/2 28/2/2 31/2/2
f 31/1/2 24/1/2 32/1/2
f 35/1/3 34/1/3 33/1/3
f 36/1/3 34/1/3 35/1/3
f 39/1/3 38/1/3 37/1/3
f 40/1/3 38/1/3 39/1/3
f 41/1/4 42/1/4 43/1/4
f 43/1/4 42/1/4 44/1/4
f 45/1/4 46/1/4 47/1/4
f 47/1/4 46/1/4 48/1/4
f 51/1/5 50/1/5 49/1/5
f 52/1/5 50/1/5 51/1/5
f 53/2/5 52/2/5 51/2/5
f 54/2/5 52/2/5 53/2/5
f 55/1/5 54/1/5 53/1/5
f 56/1/5 54/1/5 55/1/5
f 57/1/6 58/1/6 59/1/6
f 59/1/6 58/1/6 60/1/6
f 61/1/6 62/1/6 63/1/6
f 63/1/6 62/1/6 64/1/6
f 61/1/6 63/1/6 65/1/6
f 65/1/6 63/1/6 66/1/6
f 64/1/6 62/1/6 67/1/6
f 67/1/6 62/1/6 68/1/6
f 65/2/6 66/2/6 69/2/6
f 66/1/6 63/1/6 70/1/6
f 69/2/6 66/2/6 70/2/6
f 64/1/6 67/1/6 71/1/6
f 67/2/6 68/2/6 71/2/6
f 71/2/6 68/2/6 72/2/6
f 70/1/6 63/1/6 73/1/6
f 69/1/6 70/1/6 73/1/6
f 71/1/6 72/1/6 74/1/6
f 64/1/6 71/1/6 74/1/6
f 69/1/6 73/1/6 75/1/6
f 73/1/6 74/1/6 75/1/6
f 74/1/6 72/1/6 76/1/6
f 75/1/6 74/1/6 76/1/6
