# MagicaVoxel @ Ephtracy

# group
o 

# material
mtllib Boxreal2.mtl
usemtl palette

# normals
vn -1 0 0
vn 1 0 0
vn 0 0 1
vn 0 0 -1
vn 0 -1 0
vn 0 1 0

# texcoords
vt 0.333984 0.5
vt 0.919922 0.5

# verts
v -2.8 0.6 1.8
v -2.8 0.6 0.4
v -2.8 0.6 -0.6
v -2.8 0.6 -1.9
v -2.8 1.3 0.4
v -2.8 1.3 -0.6
v -2.8 2.7 0.4
v -2.8 2.7 -0.6
v -2.8 3.5 1.8
v -2.8 3.5 0.4
v -2.8 3.5 -0.6
v -2.8 3.5 -1.9
v 2.8 0.6 1.8
v 2.8 0.6 0.4
v 2.8 0.6 -0.6
v 2.8 0.6 -1.9
v 2.8 1.2 0.4
v 2.8 1.2 -0.6
v 2.8 2.7 0.4
v 2.8 2.7 -0.6
v 2.8 3.5 1.8
v 2.8 3.5 0.4
v 2.8 3.5 -0.6
v 2.8 3.5 -1.9
v -2.8 0.6 1.8
v -2.8 3.5 1.8
v 2.8 0.6 1.8
v 2.8 3.5 1.8
v -2.8 0.6 -1.9
v -2.8 3.5 -1.9
v 2.8 0.6 -1.9
v 2.8 3.5 -1.9
v -2.8 0.6 1.8
v 2.8 0.6 1.8
v -2.8 0.6 0.4
v 2.8 0.6 0.4
v -2.8 0.6 -0.6
v 2.8 0.6 -0.6
v -2.8 0.6 -1.9
v 2.8 0.6 -1.9
v -2.8 3.5 1.8
v 2.8 3.5 1.8
v -2.8 3.5 0.4
v 2.8 3.5 0.4
v -2.8 3.5 -0.6
v 2.8 3.5 -0.6
v -2.8 3.5 -1.9
v 2.8 3.5 -1.9

# faces
f 5/2/1 2/2/1 1/2/1
f 5/1/1 3/1/1 2/1/1
f 6/2/1 4/2/1 3/2/1
f 6/1/1 3/1/1 5/1/1
f 7/2/1 5/2/1 1/2/1
f 7/2/1 6/2/1 5/2/1
f 8/2/1 4/2/1 6/2/1
f 8/2/1 6/2/1 7/2/1
f 9/2/1 7/2/1 1/2/1
f 10/1/1 8/1/1 7/1/1
f 10/2/1 7/2/1 9/2/1
f 11/2/1 4/2/1 8/2/1
f 11/1/1 8/1/1 10/1/1
f 12/2/1 4/2/1 11/2/1
f 13/2/2 14/2/2 17/2/2
f 14/1/2 15/1/2 17/1/2
f 15/2/2 16/2/2 18/2/2
f 17/1/2 15/1/2 18/1/2
f 13/2/2 17/2/2 19/2/2
f 17/2/2 18/2/2 19/2/2
f 18/2/2 16/2/2 20/2/2
f 19/2/2 18/2/2 20/2/2
f 13/2/2 19/2/2 21/2/2
f 19/1/2 20/1/2 22/1/2
f 21/2/2 19/2/2 22/2/2
f 20/2/2 16/2/2 23/2/2
f 22/1/2 20/1/2 23/1/2
f 23/2/2 16/2/2 24/2/2
f 27/2/3 26/2/3 25/2/3
f 28/2/3 26/2/3 27/2/3
f 29/2/4 30/2/4 31/2/4
f 31/2/4 30/2/4 32/2/4
f 35/2/5 34/2/5 33/2/5
f 36/2/5 34/2/5 35/2/5
f 37/1/5 36/1/5 35/1/5
f 38/1/5 36/1/5 37/1/5
f 39/2/5 38/2/5 37/2/5
f 40/2/5 38/2/5 39/2/5
f 41/2/6 42/2/6 43/2/6
f 43/2/6 42/2/6 44/2/6
f 43/1/6 44/1/6 45/1/6
f 45/1/6 44/1/6 46/1/6
f 45/2/6 46/2/6 47/2/6
f 47/2/6 46/2/6 48/2/6
