# MagicaVoxel @ Ephtracy

# group
o 

# material
mtllib Check.mtl
usemtl palette

# normals
vn -1 0 0
vn 1 0 0
vn 0 0 1
vn 0 0 -1
vn 0 -1 0
vn 0 1 0

# texcoords
vt 0.912109 0.5
vt 0.994141 0.5

# verts
v -9.7 0 9.7
v -9.7 0 -8.3
v -9.7 0 -12.8
v -9.7 0.2 9.7
v -9.7 0.2 -8.3
v -9.7 0.2 -12.8
v 8.3 0.2 9.7
v 8.3 0.2 5.2
v 8.3 0.2 0.7
v 8.3 0.2 -3.8
v 8.3 0.2 -8.3
v 8.3 0.2 -12.8
v 8.3 0.3 9.7
v 8.3 0.3 5.2
v 8.3 0.3 0.7
v 8.3 0.3 -3.8
v 8.3 0.3 -8.3
v 8.3 0.3 -12.8
v 12.8 0 9.7
v 12.8 0 5.2
v 12.8 0 0.7
v 12.8 0 -3.8
v 12.8 0 -8.3
v 12.8 0 -12.8
v 12.8 0.3 9.7
v 12.8 0.3 5.2
v 12.8 0.3 0.7
v 12.8 0.3 -3.8
v 12.8 0.3 -8.3
v 12.8 0.3 -12.8
v -9.7 0 9.7
v -9.7 0.2 9.7
v -9.6 0 9.7
v -9.6 0.2 9.7
v -5.1 0 9.7
v -5.1 0.2 9.7
v -0.6 0 9.7
v -0.6 0.2 9.7
v 3.9 0 9.7
v 3.9 0.2 9.7
v 8.3 0 9.7
v 8.3 0.2 9.7
v 8.3 0.3 9.7
v 12.8 0 9.7
v 12.8 0.3 9.7
v -9.7 0 -12.8
v -9.7 0.2 -12.8
v -5.2 0 -12.8
v -5.2 0.2 -12.8
v -0.7 0 -12.8
v -0.7 0.2 -12.8
v 3.8 0 -12.8
v 3.8 0.2 -12.8
v 8.3 0 -12.8
v 8.3 0.2 -12.8
v 8.3 0.3 -12.8
v 12.8 0 -12.8
v 12.8 0.3 -12.8
v -9.7 0 9.7
v -9.6 0 9.7
v -5.1 0 9.7
v -0.6 0 9.7
v 3.9 0 9.7
v 8.3 0 9.7
v 12.8 0 9.7
v -9.6 0 5.2
v -5.1 0 5.2
v -0.6 0 5.2
v 3.8 0 5.2
v 3.9 0 5.2
v 8.3 0 5.2
v 12.8 0 5.2
v -9.6 0 0.7
v -5.1 0 0.7
v -0.7 0 0.7
v -0.6 0 0.7
v 3.8 0 0.7
v 8.3 0 0.7
v 12.8 0 0.7
v -9.6 0 -3.8
v -5.2 0 -3.8
v -5.1 0 -3.8
v -0.7 0 -3.8
v 3.8 0 -3.8
v 8.3 0 -3.8
v 8.8 0 -3.8
v 12.8 0 -3.8
v -9.7 0 -8.3
v -5.2 0 -8.3
v -0.7 0 -8.3
v 3.8 0 -8.3
v 8.3 0 -8.3
v 8.8 0 -8.3
v 12.8 0 -8.3
v -9.7 0 -12.8
v -5.2 0 -12.8
v -0.7 0 -12.8
v 3.8 0 -12.8
v 8.3 0 -12.8
v 12.8 0 -12.8
v -9.7 0.2 9.7
v -9.6 0.2 9.7
v -5.1 0.2 9.7
v -0.6 0.2 9.7
v 3.9 0.2 9.7
v 8.3 0.2 9.7
v -9.6 0.2 5.2
v -5.1 0.2 5.2
v -0.6 0.2 5.2
v 3.8 0.2 5.2
v 3.9 0.2 5.2
v 8.3 0.2 5.2
v -9.6 0.2 0.7
v -5.1 0.2 0.7
v -0.7 0.2 0.7
v -0.6 0.2 0.7
v 3.8 0.2 0.7
v 8.3 0.2 0.7
v -9.6 0.2 -3.8
v -5.2 0.2 -3.8
v -5.1 0.2 -3.8
v -0.7 0.2 -3.8
v 3.8 0.2 -3.8
v 8.3 0.2 -3.8
v -9.7 0.2 -8.3
v -5.2 0.2 -8.3
v -0.7 0.2 -8.3
v 3.8 0.2 -8.3
v 8.3 0.2 -8.3
v -9.7 0.2 -12.8
v -5.2 0.2 -12.8
v -0.7 0.2 -12.8
v 3.8 0.2 -12.8
v 8.3 0.2 -12.8
v 8.3 0.3 9.7
v 12.8 0.3 9.7
v 8.3 0.3 5.2
v 12.8 0.3 5.2
v 8.3 0.3 0.7
v 12.8 0.3 0.7
v 8.3 0.3 -3.8
v 12.8 0.3 -3.8
v 8.3 0.3 -8.3
v 12.8 0.3 -8.3
v 8.3 0.3 -12.8
v 12.8 0.3 -12.8

# faces
f 4/2/1 2/2/1 1/2/1
f 5/1/1 3/1/1 2/1/1
f 5/2/1 2/2/1 4/2/1
f 6/1/1 3/1/1 5/1/1
f 13/1/1 8/1/1 7/1/1
f 14/2/1 9/2/1 8/2/1
f 14/1/1 8/1/1 13/1/1
f 15/1/1 10/1/1 9/1/1
f 15/2/1 9/2/1 14/2/1
f 16/2/1 11/2/1 10/2/1
f 16/1/1 10/1/1 15/1/1
f 17/1/1 12/1/1 11/1/1
f 17/2/1 11/2/1 16/2/1
f 18/1/1 12/1/1 17/1/1
f 19/1/2 20/1/2 25/1/2
f 20/2/2 21/2/2 26/2/2
f 25/1/2 20/1/2 26/1/2
f 21/1/2 22/1/2 27/1/2
f 26/2/2 21/2/2 27/2/2
f 22/2/2 23/2/2 28/2/2
f 27/1/2 22/1/2 28/1/2
f 23/1/2 24/1/2 29/1/2
f 28/2/2 23/2/2 29/2/2
f 29/1/2 24/1/2 30/1/2
f 33/2/3 32/2/3 31/2/3
f 34/2/3 32/2/3 33/2/3
f 35/1/3 34/1/3 33/1/3
f 36/1/3 34/1/3 35/1/3
f 37/2/3 36/2/3 35/2/3
f 38/2/3 36/2/3 37/2/3
f 39/1/3 38/1/3 37/1/3
f 40/1/3 38/1/3 39/1/3
f 41/2/3 40/2/3 39/2/3
f 42/2/3 40/2/3 41/2/3
f 44/1/3 42/1/3 41/1/3
f 44/1/3 43/1/3 42/1/3
f 45/1/3 43/1/3 44/1/3
f 46/1/4 47/1/4 48/1/4
f 48/1/4 47/1/4 49/1/4
f 48/2/4 49/2/4 50/2/4
f 50/2/4 49/2/4 51/2/4
f 50/1/4 51/1/4 52/1/4
f 52/1/4 51/1/4 53/1/4
f 52/2/4 53/2/4 54/2/4
f 54/2/4 53/2/4 55/2/4
f 54/1/4 55/1/4 57/1/4
f 55/1/4 56/1/4 57/1/4
f 57/1/4 56/1/4 58/1/4
f 66/2/5 60/2/5 59/2/5
f 66/1/5 61/1/5 60/1/5
f 67/2/5 62/2/5 61/2/5
f 67/1/5 61/1/5 66/1/5
f 68/1/5 63/1/5 62/1/5
f 68/2/5 62/2/5 67/2/5
f 69/1/5 63/1/5 68/1/5
f 70/2/5 64/2/5 63/2/5
f 70/1/5 63/1/5 69/1/5
f 71/1/5 65/1/5 64/1/5
f 71/2/5 64/2/5 70/2/5
f 72/1/5 65/1/5 71/1/5
f 73/2/5 66/2/5 59/2/5
f 73/2/5 67/2/5 66/2/5
f 74/1/5 68/1/5 67/1/5
f 74/2/5 67/2/5 73/2/5
f 75/1/5 68/1/5 74/1/5
f 76/2/5 69/2/5 68/2/5
f 76/1/5 68/1/5 75/1/5
f 77/1/5 70/1/5 69/1/5
f 77/2/5 69/2/5 76/2/5
f 77/1/5 71/1/5 70/1/5
f 78/2/5 72/2/5 71/2/5
f 78/1/5 71/1/5 77/1/5
f 79/2/5 72/2/5 78/2/5
f 80/2/5 73/2/5 59/2/5
f 80/1/5 74/1/5 73/1/5
f 81/1/5 74/1/5 80/1/5
f 82/2/5 75/2/5 74/2/5
f 82/1/5 74/1/5 81/1/5
f 83/1/5 76/1/5 75/1/5
f 83/2/5 75/2/5 82/2/5
f 83/1/5 77/1/5 76/1/5
f 84/2/5 78/2/5 77/2/5
f 84/1/5 77/1/5 83/1/5
f 85/1/5 79/1/5 78/1/5
f 85/2/5 78/2/5 84/2/5
f 86/1/5 79/1/5 85/1/5
f 87/1/5 79/1/5 86/1/5
f 88/2/5 81/2/5 80/2/5
f 88/2/5 80/2/5 59/2/5
f 89/1/5 82/1/5 81/1/5
f 89/2/5 81/2/5 88/2/5
f 89/1/5 83/1/5 82/1/5
f 90/2/5 84/2/5 83/2/5
f 90/1/5 83/1/5 89/1/5
f 91/1/5 86/1/5 85/1/5
f 91/2/5 84/2/5 90/2/5
f 91/1/5 85/1/5 84/1/5
f 92/1/5 86/1/5 91/1/5
f 93/2/5 87/2/5 86/2/5
f 93/1/5 86/1/5 92/1/5
f 94/2/5 87/2/5 93/2/5
f 95/1/5 89/1/5 88/1/5
f 96/2/5 90/2/5 89/2/5
f 96/1/5 89/1/5 95/1/5
f 97/1/5 91/1/5 90/1/5
f 97/2/5 90/2/5 96/2/5
f 98/2/5 92/2/5 91/2/5
f 98/1/5 91/1/5 97/1/5
f 99/1/5 93/1/5 92/1/5
f 99/2/5 92/2/5 98/2/5
f 99/1/5 94/1/5 93/1/5
f 100/1/5 94/1/5 99/1/5
f 101/2/6 102/2/6 107/2/6
f 102/1/6 103/1/6 107/1/6
f 103/2/6 104/2/6 108/2/6
f 107/1/6 103/1/6 108/1/6
f 104/1/6 105/1/6 109/1/6
f 108/2/6 104/2/6 109/2/6
f 109/1/6 105/1/6 110/1/6
f 105/2/6 106/2/6 111/2/6
f 110/1/6 105/1/6 111/1/6
f 111/2/6 106/2/6 112/2/6
f 107/2/6 108/2/6 113/2/6
f 101/2/6 107/2/6 113/2/6
f 108/1/6 109/1/6 114/1/6
f 113/2/6 108/2/6 114/2/6
f 114/1/6 109/1/6 115/1/6
f 109/2/6 110/2/6 116/2/6
f 115/1/6 109/1/6 116/1/6
f 111/1/6 112/1/6 117/1/6
f 116/2/6 110/2/6 117/2/6
f 110/1/6 111/1/6 117/1/6
f 117/1/6 112/1/6 118/1/6
f 101/2/6 113/2/6 119/2/6
f 113/1/6 114/1/6 119/1/6
f 119/1/6 114/1/6 120/1/6
f 114/2/6 115/2/6 121/2/6
f 120/1/6 114/1/6 121/1/6
f 115/1/6 116/1/6 122/1/6
f 121/2/6 115/2/6 122/2/6
f 116/1/6 117/1/6 122/1/6
f 117/2/6 118/2/6 123/2/6
f 122/1/6 117/1/6 123/1/6
f 123/2/6 118/2/6 124/2/6
f 119/2/6 120/2/6 125/2/6
f 101/2/6 119/2/6 125/2/6
f 120/1/6 121/1/6 126/1/6
f 125/2/6 120/2/6 126/2/6
f 121/1/6 122/1/6 126/1/6
f 122/2/6 123/2/6 127/2/6
f 126/1/6 122/1/6 127/1/6
f 123/1/6 124/1/6 128/1/6
f 127/2/6 123/2/6 128/2/6
f 128/1/6 124/1/6 129/1/6
f 125/1/6 126/1/6 130/1/6
f 126/2/6 127/2/6 131/2/6
f 130/1/6 126/1/6 131/1/6
f 127/1/6 128/1/6 132/1/6
f 131/2/6 127/2/6 132/2/6
f 128/2/6 129/2/6 133/2/6
f 132/1/6 128/1/6 133/1/6
f 133/2/6 129/2/6 134/2/6
f 135/1/6 136/1/6 137/1/6
f 137/1/6 136/1/6 138/1/6
f 137/2/6 138/2/6 139/2/6
f 139/2/6 138/2/6 140/2/6
f 139/1/6 140/1/6 141/1/6
f 141/1/6 140/1/6 142/1/6
f 141/2/6 142/2/6 143/2/6
f 143/2/6 142/2/6 144/2/6
f 143/1/6 144/1/6 145/1/6
f 145/1/6 144/1/6 146/1/6
