# MagicaVoxel @ Ephtracy

# group
o 

# material
mtllib MuBook.mtl
usemtl palette

# normals
vn -1 0 0
vn 1 0 0
vn 0 0 1
vn 0 0 -1
vn 0 -1 0
vn 0 1 0

# texcoords
vt 0.759766 0.5
vt 0.966797 0.5
vt 0.994141 0.5

# verts
v -2 0.6 3.1
v -2 0.6 -2.8
v -2 0.7 3.1
v -2 0.7 -2.8
v -2 1.2 3.1
v -2 1.2 -2.8
v -2 1.3 3.1
v -2 1.3 -2.8
v -1.9 0.7 3
v -1.9 0.7 -2.7
v -1.9 0.8 3
v -1.9 0.8 -2.7
v -1.9 0.9 3
v -1.9 0.9 -2.7
v -1.9 1 3
v -1.9 1 -2.7
v -1.9 1.1 3
v -1.9 1.1 -2.7
v -1.9 1.2 3
v -1.9 1.2 -2.7
v 1.6 0.7 3.1
v 1.6 0.7 3
v 1.6 0.7 -2.7
v 1.6 0.7 -2.8
v 1.6 1.2 3.1
v 1.6 1.2 3
v 1.6 1.2 -2.7
v 1.6 1.2 -2.8
v 1.8 0.6 3.1
v 1.8 0.6 -2.8
v 1.8 1.3 3.1
v 1.8 1.3 -2.8
v -2 0.6 3.1
v -2 0.7 3.1
v -2 1.2 3.1
v -2 1.3 3.1
v 1.6 0.7 3.1
v 1.6 1.2 3.1
v 1.8 0.6 3.1
v 1.8 1.3 3.1
v -1.9 0.7 3
v -1.9 0.8 3
v -1.9 0.9 3
v -1.9 1 3
v -1.9 1.1 3
v -1.9 1.2 3
v 1.5 0.8 3
v 1.5 0.9 3
v 1.5 1 3
v 1.5 1.1 3
v 1.6 0.7 3
v 1.6 1.2 3
v -1.9 0.7 -2.7
v -1.9 0.8 -2.7
v -1.9 0.9 -2.7
v -1.9 1 -2.7
v -1.9 1.1 -2.7
v -1.9 1.2 -2.7
v 1.5 0.8 -2.7
v 1.5 0.9 -2.7
v 1.5 1 -2.7
v 1.5 1.1 -2.7
v 1.6 0.7 -2.7
v 1.6 1.2 -2.7
v -2 0.6 -2.8
v -2 0.7 -2.8
v -2 1.2 -2.8
v -2 1.3 -2.8
v 1.6 0.7 -2.8
v 1.6 1.2 -2.8
v 1.8 0.6 -2.8
v 1.8 1.3 -2.8
v -2 0.6 3.1
v 1.8 0.6 3.1
v -2 0.6 -2.8
v 1.8 0.6 -2.8
v -2 1.2 3.1
v 1.6 1.2 3.1
v -1.9 1.2 3
v 1.6 1.2 3
v -1.9 1.2 -2.7
v 1.6 1.2 -2.7
v -2 1.2 -2.8
v 1.6 1.2 -2.8
v -2 0.7 3.1
v 1.6 0.7 3.1
v -1.9 0.7 3
v 1.6 0.7 3
v -1.9 0.7 -2.7
v 1.6 0.7 -2.7
v -2 0.7 -2.8
v 1.6 0.7 -2.8
v -2 1.3 3.1
v 1.8 1.3 3.1
v -2 1.3 -2.8
v 1.8 1.3 -2.8

# faces
f 3/1/1 2/1/1 1/1/1
f 4/1/1 2/1/1 3/1/1
f 7/1/1 6/1/1 5/1/1
f 8/1/1 6/1/1 7/1/1
f 11/2/1 10/2/1 9/2/1
f 12/2/1 10/2/1 11/2/1
f 13/3/1 12/3/1 11/3/1
f 14/3/1 12/3/1 13/3/1
f 15/2/1 14/2/1 13/2/1
f 16/2/1 14/2/1 15/2/1
f 17/3/1 16/3/1 15/3/1
f 18/3/1 16/3/1 17/3/1
f 19/2/1 18/2/1 17/2/1
f 20/2/1 18/2/1 19/2/1
f 25/1/1 22/1/1 21/1/1
f 26/1/1 22/1/1 25/1/1
f 27/1/1 24/1/1 23/1/1
f 28/1/1 24/1/1 27/1/1
f 29/1/2 30/1/2 31/1/2
f 31/1/2 30/1/2 32/1/2
f 37/1/3 34/1/3 33/1/3
f 38/1/3 36/1/3 35/1/3
f 39/1/3 37/1/3 33/1/3
f 39/1/3 38/1/3 37/1/3
f 40/1/3 36/1/3 38/1/3
f 40/1/3 38/1/3 39/1/3
f 47/2/3 42/2/3 41/2/3
f 47/3/3 43/3/3 42/3/3
f 48/2/3 44/2/3 43/2/3
f 48/3/3 43/3/3 47/3/3
f 49/3/3 45/3/3 44/3/3
f 49/2/3 44/2/3 48/2/3
f 50/2/3 46/2/3 45/2/3
f 50/3/3 45/3/3 49/3/3
f 51/2/3 49/2/3 48/2/3
f 51/2/3 48/2/3 47/2/3
f 51/2/3 50/2/3 49/2/3
f 51/2/3 47/2/3 41/2/3
f 52/2/3 46/2/3 50/2/3
f 52/2/3 50/2/3 51/2/3
f 53/2/4 54/2/4 59/2/4
f 54/3/4 55/3/4 59/3/4
f 55/2/4 56/2/4 60/2/4
f 59/3/4 55/3/4 60/3/4
f 56/3/4 57/3/4 61/3/4
f 60/2/4 56/2/4 61/2/4
f 57/2/4 58/2/4 62/2/4
f 61/3/4 57/3/4 62/3/4
f 60/2/4 61/2/4 63/2/4
f 59/2/4 60/2/4 63/2/4
f 61/2/4 62/2/4 63/2/4
f 53/2/4 59/2/4 63/2/4
f 62/2/4 58/2/4 64/2/4
f 63/2/4 62/2/4 64/2/4
f 65/1/4 66/1/4 69/1/4
f 67/1/4 68/1/4 70/1/4
f 65/1/4 69/1/4 71/1/4
f 69/1/4 70/1/4 71/1/4
f 70/1/4 68/1/4 72/1/4
f 71/1/4 70/1/4 72/1/4
f 75/1/5 74/1/5 73/1/5
f 76/1/5 74/1/5 75/1/5
f 79/1/5 78/1/5 77/1/5
f 80/1/5 78/1/5 79/1/5
f 81/1/5 79/1/5 77/1/5
f 83/1/5 81/1/5 77/1/5
f 83/1/5 82/1/5 81/1/5
f 84/1/5 82/1/5 83/1/5
f 85/1/6 86/1/6 87/1/6
f 87/1/6 86/1/6 88/1/6
f 85/1/6 87/1/6 89/1/6
f 85/1/6 89/1/6 91/1/6
f 89/1/6 90/1/6 91/1/6
f 91/1/6 90/1/6 92/1/6
f 93/1/6 94/1/6 95/1/6
f 95/1/6 94/1/6 96/1/6
