# MagicaVoxel @ Ephtracy

# group
o 

# material
mtllib Picture2.mtl
usemtl palette

# normals
vn -1 0 0
vn 1 0 0
vn 0 0 1
vn 0 0 -1
vn 0 -1 0
vn 0 1 0

# texcoords
vt 0.00195312 0.5
vt 0.955078 0.5
vt 0.994141 0.5

# verts
v -0.7 1.5 2.8
v -0.7 1.5 -2.4
v -0.7 1.6 2.8
v -0.7 1.6 -2.4
v -0.6 1.3 3.1
v -0.6 1.3 -2.8
v -0.6 1.5 2.8
v -0.6 1.5 -2.4
v -0.6 1.6 2.8
v -0.6 1.6 -2.4
v -0.6 1.8 2.7
v -0.6 1.8 -2.4
v -0.6 5.1 2.7
v -0.6 5.1 -2.4
v -0.6 5.2 -2.4
v -0.6 5.2 -2.6
v -0.6 5.3 -2.4
v -0.6 5.3 -2.6
v -0.6 5.5 3.1
v -0.6 5.5 -2.8
v -0.5 1.8 2.7
v -0.5 1.8 -2.4
v -0.5 2.2 2.1
v -0.5 2.2 -1.7
v -0.5 4.6 2.1
v -0.5 4.6 -1.7
v -0.5 5.1 2.7
v -0.5 5.1 -2.4
v -0.5 5.2 -2.4
v -0.5 5.2 -2.6
v -0.5 5.3 -2.4
v -0.5 5.3 -2.6
v -0.4 2.2 2.1
v -0.4 2.2 -1.7
v -0.4 2.5 1.1
v -0.4 2.5 -0.7
v -0.4 2.7 0.9
v -0.4 2.7 0.6
v -0.4 3 0.9
v -0.4 3 0.6
v -0.4 3.8 -0.2
v -0.4 3.8 -0.5
v -0.4 4.1 -0.2
v -0.4 4.1 -0.5
v -0.4 4.3 1.1
v -0.4 4.3 -0.7
v -0.4 4.6 2.1
v -0.4 4.6 -1.7
v -0.1 1.3 3.1
v -0.1 1.3 -2.8
v -0.1 5.5 3.1
v -0.1 5.5 -2.8
v -0.6 1.3 3.1
v -0.6 5.5 3.1
v -0.1 1.3 3.1
v -0.1 5.5 3.1
v -0.7 1.5 2.8
v -0.7 1.6 2.8
v -0.6 1.5 2.8
v -0.6 1.6 2.8
v -0.5 2.2 -1.7
v -0.5 4.6 -1.7
v -0.4 2.2 -1.7
v -0.4 4.6 -1.7
v -0.6 1.8 -2.4
v -0.6 5.1 -2.4
v -0.5 1.8 -2.4
v -0.5 5.1 -2.4
v -0.6 5.2 -2.6
v -0.6 5.3 -2.6
v -0.5 5.2 -2.6
v -0.5 5.3 -2.6
v -0.6 1.8 2.7
v -0.6 5.1 2.7
v -0.5 1.8 2.7
v -0.5 5.1 2.7
v -0.5 2.2 2.1
v -0.5 4.6 2.1
v -0.4 2.2 2.1
v -0.4 4.6 2.1
v -0.7 1.5 -2.4
v -0.7 1.6 -2.4
v -0.6 1.5 -2.4
v -0.6 1.6 -2.4
v -0.6 5.2 -2.4
v -0.6 5.3 -2.4
v -0.5 5.2 -2.4
v -0.5 5.3 -2.4
v -0.6 1.3 -2.8
v -0.6 5.5 -2.8
v -0.1 1.3 -2.8
v -0.1 5.5 -2.8
v -0.6 1.3 3.1
v -0.1 1.3 3.1
v -0.6 1.3 -2.8
v -0.1 1.3 -2.8
v -0.7 1.5 2.8
v -0.6 1.5 2.8
v -0.7 1.5 -2.4
v -0.6 1.5 -2.4
v -0.5 4.6 2.1
v -0.4 4.6 2.1
v -0.5 4.6 -1.7
v -0.4 4.6 -1.7
v -0.6 5.1 2.7
v -0.5 5.1 2.7
v -0.6 5.1 -2.4
v -0.5 5.1 -2.4
v -0.6 5.3 -2.4
v -0.5 5.3 -2.4
v -0.6 5.3 -2.6
v -0.5 5.3 -2.6
v -0.7 1.6 2.8
v -0.6 1.6 2.8
v -0.7 1.6 -2.4
v -0.6 1.6 -2.4
v -0.6 1.8 2.7
v -0.5 1.8 2.7
v -0.6 1.8 -2.4
v -0.5 1.8 -2.4
v -0.5 2.2 2.1
v -0.4 2.2 2.1
v -0.5 2.2 -1.7
v -0.4 2.2 -1.7
v -0.6 5.2 -2.4
v -0.5 5.2 -2.4
v -0.6 5.2 -2.6
v -0.5 5.2 -2.6
v -0.6 5.5 3.1
v -0.1 5.5 3.1
v -0.6 5.5 -2.8
v -0.1 5.5 -2.8

# faces
f 3/2/1 2/2/1 1/2/1
f 4/2/1 2/2/1 3/2/1
f 7/2/1 6/2/1 5/2/1
f 8/2/1 6/2/1 7/2/1
f 9/2/1 7/2/1 5/2/1
f 10/2/1 6/2/1 8/2/1
f 11/2/1 10/2/1 9/2/1
f 12/2/1 6/2/1 10/2/1
f 12/2/1 10/2/1 11/2/1
f 13/2/1 11/2/1 9/2/1
f 14/2/1 6/2/1 12/2/1
f 15/2/1 6/2/1 14/2/1
f 15/2/1 14/2/1 13/2/1
f 16/2/1 6/2/1 15/2/1
f 17/2/1 15/2/1 13/2/1
f 18/2/1 6/2/1 16/2/1
f 19/2/1 9/2/1 5/2/1
f 19/2/1 18/2/1 17/2/1
f 19/2/1 13/2/1 9/2/1
f 19/2/1 17/2/1 13/2/1
f 20/2/1 6/2/1 18/2/1
f 20/2/1 18/2/1 19/2/1
f 23/1/1 22/1/1 21/1/1
f 24/1/1 22/1/1 23/1/1
f 25/1/1 23/1/1 21/1/1
f 26/1/1 22/1/1 24/1/1
f 27/1/1 25/1/1 21/1/1
f 27/1/1 26/1/1 25/1/1
f 28/1/1 22/1/1 26/1/1
f 28/1/1 26/1/1 27/1/1
f 31/2/1 30/2/1 29/2/1
f 32/2/1 30/2/1 31/2/1
f 35/3/1 34/3/1 33/3/1
f 36/3/1 34/3/1 35/3/1
f 37/1/1 36/1/1 35/1/1
f 38/1/1 36/1/1 37/1/1
f 39/1/1 37/1/1 35/1/1
f 39/3/1 38/3/1 37/3/1
f 40/1/1 36/1/1 38/1/1
f 40/3/1 38/3/1 39/3/1
f 41/1/1 40/1/1 39/1/1
f 41/1/1 36/1/1 40/1/1
f 42/1/1 36/1/1 41/1/1
f 43/1/1 41/1/1 39/1/1
f 43/3/1 42/3/1 41/3/1
f 44/1/1 36/1/1 42/1/1
f 44/3/1 42/3/1 43/3/1
f 45/3/1 35/3/1 33/3/1
f 45/1/1 39/1/1 35/1/1
f 45/1/1 44/1/1 43/1/1
f 45/1/1 43/1/1 39/1/1
f 46/1/1 36/1/1 44/1/1
f 46/1/1 44/1/1 45/1/1
f 46/3/1 34/3/1 36/3/1
f 47/3/1 45/3/1 33/3/1
f 47/3/1 46/3/1 45/3/1
f 48/3/1 34/3/1 46/3/1
f 48/3/1 46/3/1 47/3/1
f 49/2/2 50/2/2 51/2/2
f 51/2/2 50/2/2 52/2/2
f 55/2/3 54/2/3 53/2/3
f 56/2/3 54/2/3 55/2/3
f 59/2/3 58/2/3 57/2/3
f 60/2/3 58/2/3 59/2/3
f 63/1/3 62/1/3 61/1/3
f 64/1/3 62/1/3 63/1/3
f 67/2/3 66/2/3 65/2/3
f 68/2/3 66/2/3 67/2/3
f 71/2/3 70/2/3 69/2/3
f 72/2/3 70/2/3 71/2/3
f 73/2/4 74/2/4 75/2/4
f 75/2/4 74/2/4 76/2/4
f 77/1/4 78/1/4 79/1/4
f 79/1/4 78/1/4 80/1/4
f 81/2/4 82/2/4 83/2/4
f 83/2/4 82/2/4 84/2/4
f 85/2/4 86/2/4 87/2/4
f 87/2/4 86/2/4 88/2/4
f 89/2/4 90/2/4 91/2/4
f 91/2/4 90/2/4 92/2/4
f 95/2/5 94/2/5 93/2/5
f 96/2/5 94/2/5 95/2/5
f 99/2/5 98/2/5 97/2/5
f 100/2/5 98/2/5 99/2/5
f 103/1/5 102/1/5 101/1/5
f 104/1/5 102/1/5 103/1/5
f 107/2/5 106/2/5 105/2/5
f 108/2/5 106/2/5 107/2/5
f 111/2/5 110/2/5 109/2/5
f 112/2/5 110/2/5 111/2/5
f 113/2/6 114/2/6 115/2/6
f 115/2/6 114/2/6 116/2/6
f 117/2/6 118/2/6 119/2/6
f 119/2/6 118/2/6 120/2/6
f 121/1/6 122/1/6 123/1/6
f 123/1/6 122/1/6 124/1/6
f 125/2/6 126/2/6 127/2/6
f 127/2/6 126/2/6 128/2/6
f 129/2/6 130/2/6 131/2/6
f 131/2/6 130/2/6 132/2/6
