# MagicaVoxel @ Ephtracy

# group
o 

# material
mtllib SAMulHamOpen.mtl
usemtl palette

# normals
vn -1 0 0
vn 1 0 0
vn 0 0 1
vn 0 0 -1
vn 0 -1 0
vn 0 1 0

# texcoords
vt 0.00195312 0.5
vt 0.205078 0.5
vt 0.330078 0.5
vt 0.490234 0.5
vt 0.619141 0.5
vt 0.736328 0.5
vt 0.955078 0.5
vt 0.994141 0.5

# verts
v -3.2 0 -0.3
v -3.2 0 -6.4
v -3.2 6.4 -0.3
v -3.2 6.4 -6.4
v 2.7 0.2 -0.3
v 2.7 0.2 -5.7
v 2.7 6.2 -0.3
v 2.7 6.2 -5.7
v 2.8 1.1 -0.2
v 2.8 1.1 -0.3
v 2.8 2 -0.2
v 2.8 2 -0.3
v 2.8 4.4 -0.2
v 2.8 4.4 -0.3
v 2.8 5.3 -0.2
v 2.8 5.3 -0.3
v 2.9 0 6.1
v 2.9 0 -0.3
v 2.9 0.8 5.5
v 2.9 0.8 5.3
v 2.9 1.1 -0.0999999
v 2.9 1.1 -0.2
v 2.9 1.1 -0.3
v 2.9 1.8 5.5
v 2.9 1.8 5.3
v 2.9 2 -0.0999999
v 2.9 2 -0.2
v 2.9 2 -0.3
v 2.9 4.4 -0.0999999
v 2.9 4.4 -0.2
v 2.9 4.4 -0.3
v 2.9 5.3 -0.0999999
v 2.9 5.3 -0.2
v 2.9 5.3 -0.3
v 2.9 6.4 6.1
v 2.9 6.4 -0.3
v 3.1 0.3 5.6
v 3.1 0.3 4.7
v 3.1 0.4 5.6
v 3.1 0.4 5.3
v 3.1 0.6 5.3
v 3.1 0.6 4.7
v 3.1 0.7 5.3
v 3.1 0.7 4.7
v -3 0.2 -0.3
v -3 0.2 -5.7
v -3 6.2 -0.3
v -3 6.2 -5.7
v 3 0.1 -0.0999999
v 3 0.1 -0.2
v 3 0.3 5.6
v 3 0.3 4.7
v 3 0.4 5.6
v 3 0.4 5.3
v 3 0.7 5.3
v 3 0.7 4.7
v 3 0.8 5.5
v 3 0.8 5.3
v 3 1.1 -0.0999999
v 3 1.1 -0.2
v 3 1.8 5.5
v 3 1.8 5.3
v 3 2 -0.0999999
v 3 2 -0.2
v 3 4.4 -0.0999999
v 3 4.4 -0.2
v 3 5.3 -0.0999999
v 3 5.3 -0.2
v 3 6.3 -0.0999999
v 3 6.3 -0.2
v 3.1 0.1 6
v 3.1 0.1 -0.0999999
v 3.1 0.2 5.9
v 3.1 0.2 -0.0999999
v 3.1 0.7 5.6
v 3.1 0.7 4.7
v 3.1 0.8 5.5
v 3.1 0.8 5.3
v 3.1 1.8 5.5
v 3.1 1.8 5.3
v 3.1 1.9 5.6
v 3.1 1.9 4.7
v 3.1 6.2 5.9
v 3.1 6.2 -0.0999999
v 3.1 6.3 6
v 3.1 6.3 -0.0999999
v 3.2 0 6.1
v 3.2 0 -6.4
v 3.2 0.1 6
v 3.2 0.1 -0.2
v 3.2 0.2 5.9
v 3.2 0.2 -0.0999999
v 3.2 0.6 5.7
v 3.2 0.6 4.6
v 3.2 0.7 5.6
v 3.2 0.7 4.7
v 3.2 1.1 -0.0999999
v 3.2 1.1 -0.2
v 3.2 1.1 -0.3
v 3.2 1.9 5.6
v 3.2 1.9 4.7
v 3.2 2 5.7
v 3.2 2 4.6
v 3.2 2 -0.0999999
v 3.2 2 -0.2
v 3.2 2 -0.3
v 3.2 4.3 5.7
v 3.2 4.3 3.9
v 3.2 4.4 5.6
v 3.2 4.4 4
v 3.2 4.4 -0.0999999
v 3.2 4.4 -0.2
v 3.2 4.4 -0.3
v 3.2 5.1 5.6
v 3.2 5.1 4
v 3.2 5.2 5.7
v 3.2 5.2 3.9
v 3.2 5.3 -0.0999999
v 3.2 5.3 -0.2
v 3.2 5.3 -0.3
v 3.2 6.2 5.9
v 3.2 6.2 -0.0999999
v 3.2 6.3 6
v 3.2 6.3 -0.2
v 3.2 6.4 6.1
v 3.2 6.4 -6.4
v 3.3 1.1 -0.0999999
v 3.3 1.1 -0.2
v 3.3 2 -0.0999999
v 3.3 2 -0.2
v 3.3 4.4 -0.0999999
v 3.3 4.4 -0.2
v 3.3 5.3 -0.0999999
v 3.3 5.3 -0.2
v 2.9 0 6.1
v 2.9 6.4 6.1
v 3.2 0 6.1
v 3.2 6.4 6.1
v 3.1 0.2 5.9
v 3.1 6.2 5.9
v 3.2 0.2 5.9
v 3.2 6.2 5.9
v 3 0.8 5.3
v 3 1.8 5.3
v 3.1 0.8 5.3
v 3.1 1.8 5.3
v 3 0.3 4.7
v 3 0.7 4.7
v 3.1 0.3 4.7
v 3.1 0.6 4.7
v 3.1 0.7 4.7
v 3.1 1.9 4.7
v 3.2 0.7 4.7
v 3.2 1.9 4.7
v 3.2 1.1 -0.0999999
v 3.2 2 -0.0999999
v 3.2 4.4 -0.0999999
v 3.2 5.3 -0.0999999
v 3.3 1.1 -0.0999999
v 3.3 2 -0.0999999
v 3.3 4.4 -0.0999999
v 3.3 5.3 -0.0999999
v 2.8 1.1 -0.2
v 2.8 2 -0.2
v 2.8 4.4 -0.2
v 2.8 5.3 -0.2
v 2.9 1.1 -0.2
v 2.9 2 -0.2
v 2.9 4.4 -0.2
v 2.9 5.3 -0.2
v 3 0.1 -0.2
v 3 1.1 -0.2
v 3 2 -0.2
v 3 4.4 -0.2
v 3 5.3 -0.2
v 3 6.3 -0.2
v 3.2 0.1 -0.2
v 3.2 1.1 -0.2
v 3.2 2 -0.2
v 3.2 4.4 -0.2
v 3.2 5.3 -0.2
v 3.2 6.3 -0.2
v -3.2 0 -0.3
v -3.2 6.4 -0.3
v -3 0.2 -0.3
v -3 6.2 -0.3
v 2.7 0.2 -0.3
v 2.7 6.2 -0.3
v 2.8 1.1 -0.3
v 2.8 2 -0.3
v 2.8 4.4 -0.3
v 2.8 5.3 -0.3
v 2.9 0 -0.3
v 2.9 1.1 -0.3
v 2.9 2 -0.3
v 2.9 4.4 -0.3
v 2.9 5.3 -0.3
v 2.9 6.4 -0.3
v -3 0.2 -5.7
v -3 6.2 -5.7
v 2.7 0.2 -5.7
v 2.7 6.2 -5.7
v 3.1 0.1 6
v 3.1 6.3 6
v 3.2 0.1 6
v 3.2 6.3 6
v 3 0.3 5.6
v 3 0.4 5.6
v 3.1 0.3 5.6
v 3.1 0.4 5.6
v 3.1 0.7 5.6
v 3.1 1.9 5.6
v 3.2 0.7 5.6
v 3.2 1.9 5.6
v 3 0.8 5.5
v 3 1.8 5.5
v 3.1 0.8 5.5
v 3.1 1.8 5.5
v 3 0.4 5.3
v 3 0.7 5.3
v 3.1 0.4 5.3
v 3.1 0.6 5.3
v 3.1 0.7 5.3
v 3 0.1 -0.0999999
v 3 1.1 -0.0999999
v 3 2 -0.0999999
v 3 4.4 -0.0999999
v 3 5.3 -0.0999999
v 3 6.3 -0.0999999
v 3.1 0.1 -0.0999999
v 3.1 0.2 -0.0999999
v 3.1 6.2 -0.0999999
v 3.1 6.3 -0.0999999
v 3.2 0.2 -0.0999999
v 3.2 1.1 -0.0999999
v 3.2 2 -0.0999999
v 3.2 4.4 -0.0999999
v 3.2 5.3 -0.0999999
v 3.2 6.2 -0.0999999
v 3.2 1.1 -0.2
v 3.2 2 -0.2
v 3.2 4.4 -0.2
v 3.2 5.3 -0.2
v 3.3 1.1 -0.2
v 3.3 2 -0.2
v 3.3 4.4 -0.2
v 3.3 5.3 -0.2
v -3.2 0 -6.4
v -3.2 6.4 -6.4
v 3.2 0 -6.4
v 3.2 6.4 -6.4
v 2.9 0 6.1
v 3.2 0 6.1
v -3.2 0 -0.3
v 2.9 0 -0.3
v -3.2 0 -6.4
v 3.2 0 -6.4
v 3.1 0.2 5.9
v 3.2 0.2 5.9
v 3.1 0.2 -0.0999999
v 3.2 0.2 -0.0999999
v 3 0.4 5.6
v 3.1 0.4 5.6
v 3 0.4 5.3
v 3.1 0.4 5.3
v 3 0.7 5.3
v 3.1 0.7 5.3
v 3 0.7 4.7
v 3.1 0.7 4.7
v 3 1.1 -0.0999999
v 3.2 1.1 -0.0999999
v 3.3 1.1 -0.0999999
v 2.8 1.1 -0.2
v 2.9 1.1 -0.2
v 3 1.1 -0.2
v 3.2 1.1 -0.2
v 3.3 1.1 -0.2
v 2.8 1.1 -0.3
v 2.9 1.1 -0.3
v 3 1.8 5.5
v 3.1 1.8 5.5
v 3 1.8 5.3
v 3.1 1.8 5.3
v 3.1 1.9 5.6
v 3.2 1.9 5.6
v 3.1 1.9 4.7
v 3.2 1.9 4.7
v 3 4.4 -0.0999999
v 3.2 4.4 -0.0999999
v 3.3 4.4 -0.0999999
v 2.8 4.4 -0.2
v 2.9 4.4 -0.2
v 3 4.4 -0.2
v 3.2 4.4 -0.2
v 3.3 4.4 -0.2
v 2.8 4.4 -0.3
v 2.9 4.4 -0.3
v -3 6.2 -0.3
v 2.7 6.2 -0.3
v -3 6.2 -5.7
v 2.7 6.2 -5.7
v 3.1 6.3 6
v 3.2 6.3 6
v 3 6.3 -0.0999999
v 3.1 6.3 -0.0999999
v 3 6.3 -0.2
v 3.2 6.3 -0.2
v 3.1 0.1 6
v 3.2 0.1 6
v 3 0.1 -0.0999999
v 3.1 0.1 -0.0999999
v 3 0.1 -0.2
v 3.2 0.1 -0.2
v -3 0.2 -0.3
v 2.7 0.2 -0.3
v -3 0.2 -5.7
v 2.7 0.2 -5.7
v 3 0.3 5.6
v 3.1 0.3 5.6
v 3 0.3 4.7
v 3.1 0.3 4.7
v 3.1 0.7 5.6
v 3.2 0.7 5.6
v 3.1 0.7 4.7
v 3.2 0.7 4.7
v 3 0.8 5.5
v 3.1 0.8 5.5
v 3 0.8 5.3
v 3.1 0.8 5.3
v 3 2 -0.0999999
v 3.2 2 -0.0999999
v 3.3 2 -0.0999999
v 2.8 2 -0.2
v 2.9 2 -0.2
v 3 2 -0.2
v 3.2 2 -0.2
v 3.3 2 -0.2
v 2.8 2 -0.3
v 2.9 2 -0.3
v 3 5.3 -0.0999999
v 3.2 5.3 -0.0999999
v 3.3 5.3 -0.0999999
v 2.8 5.3 -0.2
v 2.9 5.3 -0.2
v 3 5.3 -0.2
v 3.2 5.3 -0.2
v 3.3 5.3 -0.2
v 2.8 5.3 -0.3
v 2.9 5.3 -0.3
v 3.1 6.2 5.9
v 3.2 6.2 5.9
v 3.1 6.2 -0.0999999
v 3.2 6.2 -0.0999999
v 2.9 6.4 6.1
v 3.2 6.4 6.1
v -3.2 6.4 -0.3
v 2.9 6.4 -0.3
v -3.2 6.4 -6.4
v 3.2 6.4 -6.4

# faces
f 3/2/1 2/2/1 1/2/1
f 4/2/1 2/2/1 3/2/1
f 7/2/1 6/2/1 5/2/1
f 8/2/1 6/2/1 7/2/1
f 11/4/1 10/4/1 9/4/1
f 12/4/1 10/4/1 11/4/1
f 15/4/1 14/4/1 13/4/1
f 16/4/1 14/4/1 15/4/1
f 19/2/1 18/2/1 17/2/1
f 20/2/1 18/2/1 19/2/1
f 21/2/1 18/2/1 20/2/1
f 22/2/1 18/2/1 21/2/1
f 23/2/1 18/2/1 22/2/1
f 24/2/1 19/2/1 17/2/1
f 24/8/1 20/8/1 19/8/1
f 25/2/1 21/2/1 20/2/1
f 25/8/1 20/8/1 24/8/1
f 26/4/1 22/4/1 21/4/1
f 26/2/1 21/2/1 25/2/1
f 26/2/1 25/2/1 24/2/1
f 27/4/1 22/4/1 26/4/1
f 29/2/1 26/2/1 24/2/1
f 29/2/1 28/2/1 27/2/1
f 29/2/1 27/2/1 26/2/1
f 30/2/1 28/2/1 29/2/1
f 31/2/1 28/2/1 30/2/1
f 32/2/1 29/2/1 24/2/1
f 32/4/1 30/4/1 29/4/1
f 33/4/1 30/4/1 32/4/1
f 35/2/1 24/2/1 17/2/1
f 35/2/1 34/2/1 33/2/1
f 35/2/1 33/2/1 32/2/1
f 35/2/1 32/2/1 24/2/1
f 36/2/1 34/2/1 35/2/1
f 39/2/1 38/2/1 37/2/1
f 40/2/1 38/2/1 39/2/1
f 41/2/1 38/2/1 40/2/1
f 42/2/1 38/2/1 41/2/1
f 43/6/1 42/6/1 41/6/1
f 44/6/1 42/6/1 43/6/1
f 45/2/2 46/2/2 47/2/2
f 47/2/2 46/2/2 48/2/2
f 51/2/2 52/2/2 53/2/2
f 53/2/2 52/2/2 54/2/2
f 54/2/2 52/2/2 55/2/2
f 55/2/2 52/2/2 56/2/2
f 49/2/2 50/2/2 59/2/2
f 59/2/2 50/2/2 60/2/2
f 57/8/2 58/8/2 61/8/2
f 61/8/2 58/8/2 62/8/2
f 63/2/2 64/2/2 65/2/2
f 65/2/2 64/2/2 66/2/2
f 67/2/2 68/2/2 69/2/2
f 69/2/2 68/2/2 70/2/2
f 71/2/2 72/2/2 73/2/2
f 73/2/2 72/2/2 74/2/2
f 75/5/2 76/5/2 77/5/2
f 77/5/2 76/5/2 78/5/2
f 75/5/2 77/5/2 79/5/2
f 78/5/2 76/5/2 80/5/2
f 75/5/2 79/5/2 81/5/2
f 79/5/2 80/5/2 81/5/2
f 80/5/2 76/5/2 82/5/2
f 81/5/2 80/5/2 82/5/2
f 71/2/2 73/2/2 83/2/2
f 71/2/2 83/2/2 85/2/2
f 83/2/2 84/2/2 85/2/2
f 85/2/2 84/2/2 86/2/2
f 87/2/2 88/2/2 89/2/2
f 89/2/2 88/2/2 90/2/2
f 91/2/2 92/2/2 93/2/2
f 93/2/2 92/2/2 94/2/2
f 93/6/2 94/6/2 95/6/2
f 95/6/2 94/6/2 96/6/2
f 94/2/2 92/2/2 97/2/2
f 90/2/2 88/2/2 98/2/2
f 98/2/2 88/2/2 99/2/2
f 93/6/2 95/6/2 100/6/2
f 96/6/2 94/6/2 101/6/2
f 91/2/2 93/2/2 102/2/2
f 100/6/2 101/6/2 102/6/2
f 93/6/2 100/6/2 102/6/2
f 94/2/2 97/2/2 103/2/2
f 102/6/2 101/6/2 103/6/2
f 101/6/2 94/6/2 103/6/2
f 103/2/2 97/2/2 104/2/2
f 98/4/2 99/4/2 105/4/2
f 99/2/2 88/2/2 106/2/2
f 105/4/2 99/4/2 106/4/2
f 91/2/2 102/2/2 107/2/2
f 103/2/2 104/2/2 107/2/2
f 102/2/2 103/2/2 107/2/2
f 107/2/2 104/2/2 108/2/2
f 107/3/2 108/3/2 109/3/2
f 109/3/2 108/3/2 110/3/2
f 108/2/2 104/2/2 111/2/2
f 105/2/2 106/2/2 112/2/2
f 106/2/2 88/2/2 113/2/2
f 112/2/2 106/2/2 113/2/2
f 107/3/2 109/3/2 114/3/2
f 109/1/2 110/1/2 114/1/2
f 110/3/2 108/3/2 115/3/2
f 114/1/2 110/1/2 115/1/2
f 91/2/2 107/2/2 116/2/2
f 107/3/2 114/3/2 116/3/2
f 114/3/2 115/3/2 116/3/2
f 108/2/2 111/2/2 117/2/2
f 116/3/2 115/3/2 117/3/2
f 115/3/2 108/3/2 117/3/2
f 116/2/2 117/2/2 118/2/2
f 117/2/2 111/2/2 118/2/2
f 112/4/2 113/4/2 119/4/2
f 113/2/2 88/2/2 120/2/2
f 119/4/2 113/4/2 120/4/2
f 91/2/2 116/2/2 121/2/2
f 116/2/2 118/2/2 121/2/2
f 121/2/2 118/2/2 122/2/2
f 87/2/2 89/2/2 123/2/2
f 119/2/2 120/2/2 124/2/2
f 87/2/2 123/2/2 125/2/2
f 123/2/2 124/2/2 125/2/2
f 124/2/2 120/2/2 126/2/2
f 125/2/2 124/2/2 126/2/2
f 120/2/2 88/2/2 126/2/2
f 127/4/2 128/4/2 129/4/2
f 129/4/2 128/4/2 130/4/2
f 131/4/2 132/4/2 133/4/2
f 133/4/2 132/4/2 134/4/2
f 137/2/3 136/2/3 135/2/3
f 138/2/3 136/2/3 137/2/3
f 141/2/3 140/2/3 139/2/3
f 142/2/3 140/2/3 141/2/3
f 145/5/3 144/5/3 143/5/3
f 146/5/3 144/5/3 145/5/3
f 149/2/3 148/2/3 147/2/3
f 150/2/3 148/2/3 149/2/3
f 151/2/3 148/2/3 150/2/3
f 153/6/3 152/6/3 151/6/3
f 154/6/3 152/6/3 153/6/3
f 159/4/3 156/4/3 155/4/3
f 160/4/3 156/4/3 159/4/3
f 161/4/3 158/4/3 157/4/3
f 162/4/3 158/4/3 161/4/3
f 167/4/3 164/4/3 163/4/3
f 168/4/3 164/4/3 167/4/3
f 169/4/3 166/4/3 165/4/3
f 170/4/3 166/4/3 169/4/3
f 177/2/3 172/2/3 171/2/3
f 178/2/3 172/2/3 177/2/3
f 179/2/3 174/2/3 173/2/3
f 180/2/3 174/2/3 179/2/3
f 181/2/3 176/2/3 175/2/3
f 182/2/3 176/2/3 181/2/3
f 185/2/3 184/2/3 183/2/3
f 186/2/3 184/2/3 185/2/3
f 187/2/3 185/2/3 183/2/3
f 188/2/3 184/2/3 186/2/3
f 189/2/3 188/2/3 187/2/3
f 190/2/3 188/2/3 189/2/3
f 191/2/3 188/2/3 190/2/3
f 192/2/3 188/2/3 191/2/3
f 193/2/3 187/2/3 183/2/3
f 193/2/3 189/2/3 187/2/3
f 194/2/3 189/2/3 193/2/3
f 195/2/3 191/2/3 190/2/3
f 196/2/3 191/2/3 195/2/3
f 197/2/3 188/2/3 192/2/3
f 198/2/3 184/2/3 188/2/3
f 198/2/3 188/2/3 197/2/3
f 201/2/3 200/2/3 199/2/3
f 202/2/3 200/2/3 201/2/3
f 203/2/4 204/2/4 205/2/4
f 205/2/4 204/2/4 206/2/4
f 207/2/4 208/2/4 209/2/4
f 209/2/4 208/2/4 210/2/4
f 211/6/4 212/6/4 213/6/4
f 213/6/4 212/6/4 214/6/4
f 215/5/4 216/5/4 217/5/4
f 217/5/4 216/5/4 218/5/4
f 219/2/4 220/2/4 221/2/4
f 221/2/4 220/2/4 222/2/4
f 222/2/4 220/2/4 223/2/4
f 224/2/4 225/2/4 230/2/4
f 230/2/4 225/2/4 231/2/4
f 228/2/4 229/2/4 232/2/4
f 232/2/4 229/2/4 233/2/4
f 231/2/4 225/2/4 234/2/4
f 234/2/4 225/2/4 235/2/4
f 226/2/4 227/2/4 236/2/4
f 236/2/4 227/2/4 237/2/4
f 228/2/4 232/2/4 238/2/4
f 238/2/4 232/2/4 239/2/4
f 240/4/4 241/4/4 244/4/4
f 244/4/4 241/4/4 245/4/4
f 242/4/4 243/4/4 246/4/4
f 246/4/4 243/4/4 247/4/4
f 248/2/4 249/2/4 250/2/4
f 250/2/4 249/2/4 251/2/4
f 255/2/5 253/2/5 252/2/5
f 256/2/5 255/2/5 254/2/5
f 257/2/5 253/2/5 255/2/5
f 257/2/5 255/2/5 256/2/5
f 260/2/5 259/2/5 258/2/5
f 261/2/5 259/2/5 260/2/5
f 264/2/5 263/2/5 262/2/5
f 265/2/5 263/2/5 264/2/5
f 268/5/5 267/5/5 266/5/5
f 269/5/5 267/5/5 268/5/5
f 275/4/5 271/4/5 270/4/5
f 275/4/5 272/4/5 271/4/5
f 276/4/5 272/4/5 275/4/5
f 277/4/5 272/4/5 276/4/5
f 278/4/5 274/4/5 273/4/5
f 279/4/5 274/4/5 278/4/5
f 282/5/5 281/5/5 280/5/5
f 283/5/5 281/5/5 282/5/5
f 286/6/5 285/6/5 284/6/5
f 287/6/5 285/6/5 286/6/5
f 293/4/5 289/4/5 288/4/5
f 293/4/5 290/4/5 289/4/5
f 294/4/5 290/4/5 293/4/5
f 295/4/5 290/4/5 294/4/5
f 296/4/5 292/4/5 291/4/5
f 297/4/5 292/4/5 296/4/5
f 300/2/5 299/2/5 298/2/5
f 301/2/5 299/2/5 300/2/5
f 305/2/5 303/2/5 302/2/5
f 306/2/5 305/2/5 304/2/5
f 307/2/5 303/2/5 305/2/5
f 307/2/5 305/2/5 306/2/5
f 308/2/6 309/2/6 311/2/6
f 310/2/6 311/2/6 312/2/6
f 311/2/6 309/2/6 313/2/6
f 312/2/6 311/2/6 313/2/6
f 314/2/6 315/2/6 316/2/6
f 316/2/6 315/2/6 317/2/6
f 318/2/6 319/2/6 320/2/6
f 320/2/6 319/2/6 321/2/6
f 322/6/6 323/6/6 324/6/6
f 324/6/6 323/6/6 325/6/6
f 326/5/6 327/5/6 328/5/6
f 328/5/6 327/5/6 329/5/6
f 330/4/6 331/4/6 335/4/6
f 331/4/6 332/4/6 335/4/6
f 335/4/6 332/4/6 336/4/6
f 336/4/6 332/4/6 337/4/6
f 333/4/6 334/4/6 338/4/6
f 338/4/6 334/4/6 339/4/6
f 340/4/6 341/4/6 345/4/6
f 341/4/6 342/4/6 345/4/6
f 345/4/6 342/4/6 346/4/6
f 346/4/6 342/4/6 347/4/6
f 343/4/6 344/4/6 348/4/6
f 348/4/6 344/4/6 349/4/6
f 350/2/6 351/2/6 352/2/6
f 352/2/6 351/2/6 353/2/6
f 354/2/6 355/2/6 357/2/6
f 356/2/6 357/2/6 358/2/6
f 357/2/6 355/2/6 359/2/6
f 358/2/6 357/2/6 359/2/6
